<?xml version="1.0" encoding="utf-8"?>
<!-- Generator: Adobe Illustrator 10.0.3, SVG Export Plug-In . SVG Version: 3.0.0 Build 77)  -->
<!DOCTYPE svg PUBLIC "-//W3C//DTD SVG 1.0//EN"    "http://www.w3.org/TR/2001/REC-SVG-20010904/DTD/svg10.dtd" [
	<!ENTITY ns_flows "http://ns.adobe.com/Flows/1.0/">
	<!ENTITY ns_extend "http://ns.adobe.com/Extensibility/1.0/">
	<!ENTITY ns_ai "http://ns.adobe.com/AdobeIllustrator/10.0/">
	<!ENTITY ns_graphs "http://ns.adobe.com/Graphs/1.0/">
	<!ENTITY ns_vars "http://ns.adobe.com/Variables/1.0/">
	<!ENTITY ns_imrep "http://ns.adobe.com/ImageReplacement/1.0/">
	<!ENTITY ns_sfw "http://ns.adobe.com/SaveForWeb/1.0/">
	<!ENTITY ns_custom "http://ns.adobe.com/GenericCustomNamespace/1.0/">
	<!ENTITY ns_adobe_xpath "http://ns.adobe.com/XPath/1.0/">
	<!ENTITY ns_svg "http://www.w3.org/2000/svg">
	<!ENTITY ns_xlink "http://www.w3.org/1999/xlink">
]>
<svg 
	 xmlns:x="&ns_extend;" xmlns:i="&ns_ai;" xmlns:graph="&ns_graphs;" i:viewOrigin="369.085 349.2563" i:rulerOrigin="0 0" i:pageBounds="0 595.2754 841.8896 0"
	 xmlns="&ns_svg;" xmlns:xlink="&ns_xlink;" xmlns:a="http://ns.adobe.com/AdobeSVGViewerExtensions/3.0/"
	 width="104.494" height="104.493" viewBox="0 0 104.494 104.493" overflow="visible" enable-background="new 0 0 104.494 104.493"
	 xml:space="preserve">
	<metadata>
		<variableSets  xmlns="&ns_vars;">
			<variableSet  varSetName="binding1" locked="none">
				<variables></variables>
				<v:sampleDataSets  xmlns="&ns_custom;" xmlns:v="&ns_vars;"></v:sampleDataSets>
			</variableSet>
		</variableSets>
		<sfw  xmlns="&ns_sfw;">
			<slices></slices>
			<sliceSourceBounds  y="244.764" x="369.085" width="104.494" height="104.493" bottomLeftOrigin="true"></sliceSourceBounds>
		</sfw>
	</metadata>
	<g id="レイヤー_1" i:layer="yes" i:dimmedPercent="50" i:rgbTrio="#4F008000FFFF">
		<linearGradient id="XMLID_1_" gradientUnits="userSpaceOnUse" x1="18.8823" y1="12.4844" x2="85.6117" y2="92.0094">
			<stop  offset="0" style="stop-color:#FAFBFA"/>
			<stop  offset="0.0701" style="stop-color:#E3E4E3"/>
			<stop  offset="0.2296" style="stop-color:#B6B7B6"/>
			<stop  offset="0.3897" style="stop-color:#909190"/>
			<stop  offset="0.5478" style="stop-color:#737373"/>
			<stop  offset="0.7036" style="stop-color:#5E5E5E"/>
			<stop  offset="0.8557" style="stop-color:#515151"/>
			<stop  offset="1" style="stop-color:#4D4D4D"/>
			<a:midPointStop  offset="0" style="stop-color:#FAFBFA"/>
			<a:midPointStop  offset="0.3034" style="stop-color:#FAFBFA"/>
			<a:midPointStop  offset="1" style="stop-color:#4D4D4D"/>
		</linearGradient>
		<path i:knockout="Off" fill="url(#XMLID_1_)" stroke="#4D4D4D" stroke-width="0.2835" d="M104.353,52.248
			c0-28.777-23.328-52.106-52.107-52.106C23.47,0.142,0.142,23.47,0.142,52.248c0,28.775,23.328,52.104,52.104,52.104
			C81.024,104.351,104.353,81.023,104.353,52.248z"/>
		
			<linearGradient id="XMLID_2_" gradientUnits="userSpaceOnUse" x1="17.3628" y1="24.9468" x2="87.9989" y2="95.5829" gradientTransform="matrix(0.9995 -0.0324 0.0324 0.9995 -2.3608 -6.2818)">
			<stop  offset="0" style="stop-color:#C3C7C1"/>
			<stop  offset="0.2888" style="stop-color:#B5B9B3"/>
			<stop  offset="0.6461" style="stop-color:#9DA39C"/>
			<a:midPointStop  offset="0" style="stop-color:#C3C7C1"/>
			<a:midPointStop  offset="0.5686" style="stop-color:#C3C7C1"/>
			<a:midPointStop  offset="0.6461" style="stop-color:#9DA39C"/>
		</linearGradient>
		<path i:knockout="Off" fill="url(#XMLID_2_)" d="M2.301,53.865c0.892,27.538,24.023,49.219,51.563,48.327
			s49.222-24.024,48.33-51.562C101.303,23.089,78.17,1.408,50.63,2.3C23.09,3.192,1.409,26.325,2.301,53.865z"/>
		<linearGradient id="XMLID_3_" gradientUnits="userSpaceOnUse" x1="74.8184" y1="79.147" x2="29.6776" y2="25.3503">
			<stop  offset="0" style="stop-color:#FFFFFF"/>
			<stop  offset="0.045" style="stop-color:#EBEBEB"/>
			<stop  offset="0.1523" style="stop-color:#C1C1C1"/>
			<stop  offset="0.2656" style="stop-color:#9D9D9D"/>
			<stop  offset="0.3839" style="stop-color:#808080"/>
			<stop  offset="0.509" style="stop-color:#696969"/>
			<stop  offset="0.644" style="stop-color:#595959"/>
			<stop  offset="0.7958" style="stop-color:#4F4F4F"/>
			<stop  offset="1" style="stop-color:#4D4D4D"/>
			<a:midPointStop  offset="0" style="stop-color:#FFFFFF"/>
			<a:midPointStop  offset="0.236" style="stop-color:#FFFFFF"/>
			<a:midPointStop  offset="1" style="stop-color:#4D4D4D"/>
		</linearGradient>
		<path i:knockout="Off" fill="url(#XMLID_3_)" d="M16.982,52.25c0,19.442,15.818,35.261,35.264,35.261S87.512,71.692,87.512,52.25
			c0-19.444-15.82-35.266-35.266-35.266S16.982,32.805,16.982,52.25z"/>
		<path i:knockout="Off" fill="#FFFFFF" stroke="#4D4D4D" stroke-width="0.2835" d="M85.942,52.249
			c0-18.61-15.088-33.694-33.697-33.694S18.552,33.638,18.552,52.249c0,18.607,15.084,33.692,33.693,33.692
			S85.942,70.856,85.942,52.249z"/>
		<g>
			<path i:knockout="Off" fill-rule="evenodd" clip-rule="evenodd" fill="#C9002C" d="M60.931,40.636l-15.288,26.29h13.209
				l15.432-25.588L60.931,40.636z"/>
			<linearGradient id="XMLID_4_" gradientUnits="userSpaceOnUse" x1="37.7866" y1="33.7632" x2="51.2413" y2="47.2179">
				<stop  offset="0.0056" style="stop-color:#FEE6EE"/>
				<stop  offset="0.0757" style="stop-color:#FBADC7"/>
				<stop  offset="0.1487" style="stop-color:#F87AA7"/>
				<stop  offset="0.2205" style="stop-color:#F64F8E"/>
				<stop  offset="0.2895" style="stop-color:#F5307C"/>
				<stop  offset="0.355" style="stop-color:#F41970"/>
				<stop  offset="0.4155" style="stop-color:#F30C68"/>
				<stop  offset="0.4663" style="stop-color:#F30166"/>
				<a:midPointStop  offset="0.0056" style="stop-color:#FEE6EE"/>
				<a:midPointStop  offset="0.3293" style="stop-color:#FEE6EE"/>
				<a:midPointStop  offset="0.4663" style="stop-color:#F30166"/>
			</linearGradient>
			<path i:knockout="Off" fill-rule="evenodd" clip-rule="evenodd" fill="url(#XMLID_4_)" d="M60.514,41.338l-3.818-3.812H34.024
				l-3.813,3.812H60.514z"/>
			<linearGradient id="XMLID_5_" gradientUnits="userSpaceOnUse" x1="56.1201" y1="44.415" x2="44.9057" y2="28.3992">
				<stop  offset="0.0169" style="stop-color:#FFFFFF"/>
				<stop  offset="0.0644" style="stop-color:#FDD8E8"/>
				<stop  offset="0.1641" style="stop-color:#FA8DBA"/>
				<stop  offset="0.2531" style="stop-color:#F75196"/>
				<stop  offset="0.3284" style="stop-color:#F5257C"/>
				<stop  offset="0.3868" style="stop-color:#F30B6C"/>
				<stop  offset="0.4213" style="stop-color:#F30166"/>
				<stop  offset="1" style="stop-color:#C9002C"/>
				<a:midPointStop  offset="0.0169" style="stop-color:#FFFFFF"/>
				<a:midPointStop  offset="0.4085" style="stop-color:#FFFFFF"/>
				<a:midPointStop  offset="0.4213" style="stop-color:#F30166"/>
				<a:midPointStop  offset="0.5" style="stop-color:#F30166"/>
				<a:midPointStop  offset="1" style="stop-color:#C9002C"/>
			</linearGradient>
			<path i:knockout="Off" fill-rule="evenodd" clip-rule="evenodd" fill="url(#XMLID_5_)" d="M60.514,41.338l4.928-8.839H39.049
				l-5.256,5.255h23.135L60.514,41.338z"/>
			<linearGradient id="XMLID_6_" gradientUnits="userSpaceOnUse" x1="60.0352" y1="39.5522" x2="72.8823" y2="36.1099">
				<stop  offset="0.0056" style="stop-color:#FFFFFF"/>
				<stop  offset="0.3327" style="stop-color:#DB5371"/>
				<stop  offset="0.5" style="stop-color:#C9002C"/>
				<a:midPointStop  offset="0.0056" style="stop-color:#FFFFFF"/>
				<a:midPointStop  offset="0.4886" style="stop-color:#FFFFFF"/>
				<a:midPointStop  offset="0.5" style="stop-color:#C9002C"/>
			</linearGradient>
			<path i:knockout="Off" fill-rule="evenodd" clip-rule="evenodd" fill="url(#XMLID_6_)" d="M60.514,41.338h13.77L65.441,32.5
				L60.514,41.338z"/>
			<linearGradient id="XMLID_7_" gradientUnits="userSpaceOnUse" x1="50.5161" y1="61.1177" x2="28.8604" y2="42.9464">
				<stop  offset="0.0056" style="stop-color:#FFFFFF"/>
				<stop  offset="0.1134" style="stop-color:#FDCCE0"/>
				<stop  offset="0.2418" style="stop-color:#FA97C0"/>
				<stop  offset="0.3719" style="stop-color:#F869A5"/>
				<stop  offset="0.501" style="stop-color:#F6448E"/>
				<stop  offset="0.629" style="stop-color:#F5267D"/>
				<stop  offset="0.7555" style="stop-color:#F41270"/>
				<stop  offset="0.88" style="stop-color:#F30569"/>
				<stop  offset="1" style="stop-color:#F30166"/>
				<a:midPointStop  offset="0.0056" style="stop-color:#FFFFFF"/>
				<a:midPointStop  offset="0.3" style="stop-color:#FFFFFF"/>
				<a:midPointStop  offset="1" style="stop-color:#F30166"/>
			</linearGradient>
			<path i:knockout="Off" fill-rule="evenodd" clip-rule="evenodd" fill="url(#XMLID_7_)" d="M38.738,41.338h-8.527l15.432,25.588
				l3.922-6.758L38.738,41.338z"/>
			<linearGradient id="XMLID_8_" gradientUnits="userSpaceOnUse" x1="54.0381" y1="41.3384" x2="54.0381" y2="32.4535">
				<stop  offset="0" style="stop-color:#FFFFFF"/>
				<stop  offset="0.2798" style="stop-color:#FFFFFF"/>
				<stop  offset="0.3258" style="stop-color:#FFFFFF"/>
				<stop  offset="0.3929" style="stop-color:#FEFAF9"/>
				<stop  offset="0.4763" style="stop-color:#FAE9E7"/>
				<stop  offset="0.5685" style="stop-color:#F4CFCB"/>
				<stop  offset="0.667" style="stop-color:#ECABA8"/>
				<stop  offset="0.7706" style="stop-color:#E27C80"/>
				<stop  offset="0.8783" style="stop-color:#D64557"/>
				<stop  offset="0.9876" style="stop-color:#CB0D30"/>
				<stop  offset="1" style="stop-color:#C9002C"/>
				<a:midPointStop  offset="0" style="stop-color:#FFFFFF"/>
				<a:midPointStop  offset="0.87" style="stop-color:#FFFFFF"/>
				<a:midPointStop  offset="0.3258" style="stop-color:#FFFFFF"/>
				<a:midPointStop  offset="0.6612" style="stop-color:#FFFFFF"/>
				<a:midPointStop  offset="1" style="stop-color:#C9002C"/>
			</linearGradient>
			<path i:knockout="Off" fill-rule="evenodd" clip-rule="evenodd" fill="url(#XMLID_8_)"  a:adobe-blending-mode="multiply" d="
				M65.441,32.5H39.049l-5.256,5.255h23.135l3.586,3.584h13.77L65.441,32.5z"/>
		</g>
		<g i:knockout="Off">
			<path i:knockout="Off" fill="#FFFFFF" d="M40.497,99.018c-0.695-0.065-1.432-0.174-2.101-0.398
				c-2.854-0.962-4.355-3.057-3.351-6.036c1.017-3.018,3.43-4.088,6.422-3.079c0.581,0.195,1.312,0.568,1.871,1.038l-0.628,1.447
				c-0.542-0.604-1.118-0.897-1.749-1.109c-1.818-0.613-3.422,0.393-4.031,2.198c-0.604,1.793,0.052,3.518,1.933,4.151
				c0.694,0.234,1.566,0.359,2.055,0.285L40.497,99.018z"/>
			<path i:knockout="Off" fill="#FFFFFF" d="M48.418,100.001c-0.696,0.267-1.461,0.349-2.411,0.217
				c-2.244-0.312-3.37-1.787-3.06-4.017c0.273-1.967,1.541-3.444,3.652-3.151c2.521,0.351,2.993,2.179,2.663,4.554l-4.697-0.653
				c-0.073,1.106,0.606,1.833,1.701,1.985c0.858,0.119,1.641-0.095,2.352-0.373L48.418,100.001z M47.743,96.155
				c0.066-0.865-0.227-1.659-1.216-1.796c-0.99-0.138-1.587,0.479-1.792,1.378L47.743,96.155z"/>
			<path i:knockout="Off" fill="#FFFFFF" d="M51.028,93.621l1.585-0.014l0.014,1.559h0.026c0.074-0.641,0.797-1.727,1.863-1.735
				c0.174-0.002,0.36-0.004,0.547,0.048l0.017,1.799c-0.161-0.092-0.481-0.143-0.801-0.14c-1.452,0.013-1.436,1.825-1.427,2.811
				l0.022,2.519l-1.785,0.016L51.028,93.621z"/>
			<path i:knockout="Off" fill="#FFFFFF" d="M57.376,94.62l-1.305,0.193l-0.19-1.292l1.305-0.192l-0.201-1.357l1.683-0.828
				l0.284,1.924l1.568-0.232l0.191,1.292l-1.568,0.232l0.468,3.162c0.086,0.58,0.324,1.098,0.996,0.998
				c0.316-0.047,0.609-0.158,0.776-0.304l0.26,1.39c-0.354,0.159-0.754,0.272-1.281,0.351c-1.384,0.205-2.275-0.539-2.474-1.883
				L57.376,94.62z"/>
			<path i:knockout="Off" fill="#FFFFFF" d="M60.974,89.65l1.728-0.45l0.431,1.649L61.404,91.3L60.974,89.65z M61.721,92.512
				l1.728-0.451l1.732,6.639l-1.727,0.451L61.721,92.512z"/>
			<path i:knockout="Off" fill="#FFFFFF" d="M66.181,92.568l-1.234,0.465l-0.46-1.222l1.234-0.465l-0.339-0.898
				c-0.483-1.284-0.098-2.454,1.224-2.951c0.424-0.16,0.921-0.276,1.273-0.323l0.384,1.436c-0.183-0.031-0.446-0.088-0.808,0.048
				c-0.561,0.211-0.553,0.764-0.364,1.262l0.3,0.798l1.459-0.549l0.46,1.222l-1.459,0.55l1.958,5.199l-1.671,0.629L66.181,92.568z"
				/>
			<path i:knockout="Off" fill="#FFFFFF" d="M68.807,86.868l1.589-0.814l0.778,1.518l-1.589,0.814L68.807,86.868z M70.156,89.5
				l1.589-0.814l3.13,6.105l-1.588,0.814L70.156,89.5z"/>
			<path i:knockout="Off" fill="#FFFFFF" d="M81.445,90.147c-0.334,0.666-0.843,1.243-1.633,1.787
				c-1.865,1.284-3.692,0.957-4.969-0.897c-1.126-1.635-1.188-3.581,0.567-4.79c2.096-1.443,3.678-0.414,5.038,1.562l-3.906,2.689
				c0.692,0.865,1.685,0.943,2.595,0.315c0.714-0.491,1.146-1.177,1.484-1.862L81.445,90.147z M78.35,87.765
				c-0.535-0.683-1.287-1.07-2.11-0.504s-0.847,1.424-0.392,2.227L78.35,87.765z"/>
			<path i:knockout="Off" fill="#FFFFFF" d="M86.722,84.951l-0.02,0.019c0.095,0.848-0.235,1.555-0.829,2.147
				c-1.488,1.488-3.26,0.81-4.588-0.519c-1.337-1.338-1.978-3.071-0.489-4.56c0.632-0.631,1.291-0.857,2.13-0.772l0.019-0.019
				l-2.778-2.779l1.263-1.263l7.063,7.067l-1.225,1.224L86.722,84.951z M85.242,85.789c0.839-0.838,0.227-1.997-0.461-2.685
				c-0.679-0.679-1.865-1.226-2.676-0.415c-0.819,0.819-0.15,1.94,0.499,2.591C83.273,85.949,84.413,86.618,85.242,85.789z"/>
		</g>
		<g>
			<path i:knockout="Off" fill="#FFFFFF" d="M20.734,81.864l-3.321,2.979l-1.122-1.255l6.922-6.211l1.564,1.742
				c1.377,1.504,1.888,3.046,0.569,4.234c-0.805,0.718-2.385,0.834-3.528-0.239C21.419,82.738,20.734,81.864,20.734,81.864z
				 M21.081,81.574l0.214,0.214c1.113,1.056,2.181,0.896,2.87,0.276c0.972-0.874,0.551-1.952,0.015-2.548
				c-0.309-0.346-0.318-0.362-0.367-0.362c-0.048-0.004-0.049,0.018-0.413,0.344L21.081,81.574z"/>
			<path i:knockout="Off" fill="#FFFFFF" d="M20.687,81.844c-0.256,1.23-0.588,3.056-1.133,5.379l1.301,1.451
				c0.584-2.549,1.254-5.519,1.254-5.519l-0.661-0.978L20.687,81.844z"/>
		</g>
		<g>
			<path i:knockout="Off" fill="#FFFFFF" d="M27.874,93.675l-1.579-1.136l3.464-8.958l1.582,1.132L27.874,93.675z"/>
			<path i:knockout="Off" fill="#FFFFFF" d="M22.886,90.096l-0.956-0.679l7.829-5.836l0.881,0.631L22.886,90.096z"/>
			<path i:knockout="Off" fill="#FFFFFF" d="M24.551,88.186l2.835,2.038l0.588-0.82l-2.834-2.032L24.551,88.186z"/>
		</g>
		<g i:knockout="Off">
			<path i:knockout="Off" fill="#1A1A1A" d="M40.196,98.371c-0.694-0.069-1.431-0.182-2.098-0.412
				c-2.847-0.979-4.334-3.083-3.312-6.056c1.036-3.01,3.456-4.064,6.441-3.038c0.579,0.2,1.309,0.577,1.864,1.051l-0.637,1.442
				c-0.538-0.607-1.112-0.903-1.742-1.12c-1.814-0.624-3.424,0.371-4.044,2.172c-0.615,1.789,0.029,3.518,1.906,4.164
				c0.693,0.238,1.563,0.368,2.053,0.298L40.196,98.371z"/>
			<path i:knockout="Off" fill="#1A1A1A" d="M48.003,99.396c-0.698,0.261-1.463,0.336-2.412,0.195
				c-2.24-0.332-3.354-1.816-3.023-4.043c0.291-1.964,1.572-3.43,3.68-3.118c2.517,0.373,2.973,2.205,2.622,4.576l-4.691-0.694
				c-0.083,1.105,0.589,1.838,1.683,2c0.856,0.126,1.641-0.08,2.354-0.352L48.003,99.396z M47.362,95.544
				c0.074-0.864-0.212-1.66-1.2-1.807c-0.988-0.146-1.59,0.465-1.804,1.362L47.362,95.544z"/>
			<path i:knockout="Off" fill="#1A1A1A" d="M50.576,93.037l1.585,0.003l-0.003,1.559h0.026c0.082-0.639,0.817-1.716,1.882-1.714
				c0.173,0.001,0.359,0.001,0.546,0.055l-0.004,1.799c-0.16-0.094-0.479-0.148-0.799-0.148c-1.452-0.004-1.457,1.808-1.458,2.793
				L52.345,99.9l-1.785-0.004L50.576,93.037z"/>
			<path i:knockout="Off" fill="#1A1A1A" d="M56.951,94.103l-1.307,0.18l-0.178-1.294l1.307-0.18l-0.187-1.358l1.69-0.811
				l0.265,1.926l1.57-0.216l0.178,1.294l-1.57,0.216l0.436,3.167c0.079,0.58,0.312,1.1,0.985,1.007
				c0.316-0.043,0.611-0.151,0.779-0.295l0.245,1.392c-0.354,0.156-0.757,0.265-1.284,0.338c-1.386,0.19-2.27-0.562-2.454-1.908
				L56.951,94.103z"/>
			<path i:knockout="Off" fill="#1A1A1A" d="M60.52,89.191l1.732-0.429l0.41,1.654l-1.732,0.43L60.52,89.191z M61.23,92.061
				l1.732-0.429l1.649,6.658l-1.732,0.43L61.23,92.061z"/>
			<path i:knockout="Off" fill="#1A1A1A" d="M65.599,92.202l-1.24,0.446l-0.442-1.229l1.24-0.446l-0.324-0.902
				c-0.465-1.291-0.062-2.455,1.266-2.933c0.427-0.154,0.925-0.263,1.278-0.305l0.362,1.44c-0.182-0.033-0.444-0.095-0.808,0.036
				c-0.564,0.203-0.563,0.755-0.383,1.257l0.288,0.802l1.467-0.527l0.441,1.228l-1.466,0.528l1.881,5.226l-1.68,0.604L65.599,92.202
				z"/>
			<path i:knockout="Off" fill="#1A1A1A" d="M68.231,86.577l1.602-0.787l0.753,1.53l-1.602,0.787L68.231,86.577z M69.536,89.231
				l1.603-0.788l3.026,6.156l-1.602,0.787L69.536,89.231z"/>
			<path i:knockout="Off" fill="#1A1A1A" d="M80.725,90.13c-0.346,0.659-0.865,1.227-1.666,1.755
				c-1.889,1.249-3.708,0.888-4.95-0.99c-1.094-1.656-1.119-3.604,0.658-4.778c2.123-1.402,3.685-0.344,5.007,1.656l-3.956,2.615
				c0.677,0.878,1.666,0.974,2.589,0.364c0.722-0.478,1.168-1.155,1.518-1.834L80.725,90.13z M77.676,87.691
				c-0.522-0.693-1.267-1.095-2.101-0.544c-0.833,0.551-0.873,1.408-0.434,2.219L77.676,87.691z"/>
			<path i:knockout="Off" fill="#1A1A1A" d="M86.024,85.111l-0.02,0.018c0.076,0.85-0.269,1.549-0.874,2.13
				c-1.52,1.456-3.275,0.74-4.575-0.616c-1.309-1.365-1.912-3.112-0.392-4.568c0.644-0.617,1.308-0.829,2.145-0.727l0.019-0.019
				l-2.718-2.837l1.288-1.234l6.912,7.213l-1.251,1.198L86.024,85.111z M84.528,85.917c0.855-0.819,0.269-1.991-0.404-2.693
				c-0.663-0.692-1.838-1.264-2.665-0.472c-0.837,0.802-0.192,1.937,0.443,2.601C82.557,86.035,83.682,86.728,84.528,85.917z"/>
		</g>
		<g>
			<path i:knockout="Off" fill="#1A1A1A" d="M20.516,81.297l-3.372,2.921l-1.102-1.274l7.031-6.089l1.533,1.767
				c1.35,1.527,1.833,3.08,0.496,4.248c-0.819,0.704-2.4,0.789-3.525-0.303C21.185,82.183,20.516,81.297,20.516,81.297z
				 M20.868,81.015l0.208,0.218c1.096,1.074,2.165,0.932,2.866,0.323c0.986-0.855,0.584-1.939,0.06-2.544
				c-0.304-0.35-0.313-0.366-0.362-0.373c-0.049-0.003-0.047,0.019-0.418,0.339L20.868,81.015z"/>
			<path i:knockout="Off" fill="#1A1A1A" d="M20.467,81.28c-0.274,1.224-0.64,3.046-1.225,5.357l1.274,1.471
				c0.629-2.535,1.35-5.494,1.35-5.494l-0.645-0.988L20.467,81.28z"/>
		</g>
		<g>
			<path i:knockout="Off" fill="#1A1A1A" d="M27.441,93.236l-1.56-1.159l3.62-8.9l1.562,1.16L27.441,93.236z"/>
			<path i:knockout="Off" fill="#1A1A1A" d="M22.515,89.57l-0.942-0.697l7.93-5.696l0.87,0.647L22.515,89.57z"/>
			<path i:knockout="Off" fill="#1A1A1A" d="M24.215,87.693l2.8,2.081l0.604-0.806l-2.801-2.083L24.215,87.693z"/>
		</g>
		<g i:knockout="Off">
			<path i:knockout="Off" fill="#FFFFFF" d="M95.447,54.133l-0.004,0.057c-0.059,0.973,0.316,1.825,1.479,1.896
				c0.827,0.05,1.613-0.341,1.668-1.246c0.019-0.302-0.094-0.87-0.484-0.894c-0.224-0.013-0.361,0.226-0.652,0.208
				c-0.335-0.021-0.527-0.368-0.51-0.67c0.024-0.392,0.399-0.672,0.78-0.649c0.995,0.06,1.319,1.37,1.27,2.197
				c-0.07,1.174-0.79,2.32-2.098,2.241c-1.163-0.07-1.729-1.092-1.699-2.167l-0.022-0.001c-0.096,1.229-0.848,2.339-2.188,2.258
				c-1.465-0.088-2.261-1.595-2.177-2.992c0.046-0.76,0.564-2.098,1.57-2.037c0.402,0.024,0.686,0.355,0.662,0.747
				c-0.022,0.368-0.263,0.635-0.632,0.612c-0.335-0.021-0.411-0.249-0.545-0.257c-0.437-0.026-0.628,0.736-0.644,0.993
				c-0.061,1.006,0.788,1.63,1.716,1.686c1.319,0.079,1.994-0.509,2.074-1.828l0.011-0.179L95.447,54.133z"/>
		</g>
		<g i:knockout="Off">
			<path i:knockout="Off" d="M95.466,53.601l-0.003,0.057c-0.047,0.973,0.339,1.821,1.503,1.877c0.828,0.039,1.609-0.36,1.652-1.267
				c0.015-0.303-0.104-0.869-0.495-0.888c-0.224-0.011-0.359,0.229-0.649,0.216c-0.336-0.016-0.532-0.361-0.519-0.664
				c0.02-0.392,0.392-0.676,0.771-0.658c0.996,0.047,1.338,1.354,1.298,2.182c-0.056,1.175-0.762,2.33-2.07,2.268
				c-1.164-0.056-1.743-1.07-1.726-2.146l-0.022-0.001c-0.081,1.229-0.818,2.35-2.161,2.285c-1.466-0.069-2.28-1.566-2.214-2.965
				c0.037-0.761,0.538-2.105,1.545-2.057c0.403,0.02,0.69,0.347,0.672,0.739c-0.018,0.369-0.255,0.638-0.624,0.62
				c-0.336-0.016-0.415-0.244-0.549-0.25c-0.437-0.021-0.619,0.744-0.631,1.001c-0.049,1.008,0.809,1.62,1.736,1.665
				c1.32,0.062,1.988-0.533,2.052-1.854l0.008-0.18L95.466,53.601z"/>
		</g>
		<g i:knockout="Off">
			<path i:knockout="Off" fill="#FFFFFF" d="M15.696,40.934l-0.427,2.181c-0.847,0.334-1.583,0.642-2.208,0.922
				c-0.625,0.281-1.273,0.592-1.945,0.932l-0.166,0.848l2.558,0.5c0.132,0.026,0.253,0.028,0.362,0.006
				c0.108-0.022,0.203-0.096,0.282-0.222c0.04-0.062,0.088-0.177,0.144-0.343c0.056-0.166,0.097-0.308,0.124-0.424l0.399,0.078
				l-0.666,3.404l-0.399-0.078c0.01-0.092,0.022-0.225,0.037-0.4c0.015-0.175,0.014-0.299-0.004-0.373
				c-0.027-0.123-0.083-0.219-0.169-0.288s-0.203-0.119-0.351-0.148L7.403,46.38c-0.133-0.026-0.255-0.03-0.365-0.013
				c-0.11,0.018-0.206,0.091-0.286,0.22c-0.053,0.087-0.108,0.204-0.166,0.349s-0.102,0.27-0.13,0.374l-0.398-0.078l0.73-3.733
				c0.067-0.342,0.165-0.656,0.294-0.943c0.129-0.286,0.296-0.536,0.5-0.749c0.199-0.206,0.435-0.355,0.708-0.447
				s0.583-0.105,0.93-0.037c0.313,0.062,0.581,0.163,0.802,0.305c0.222,0.142,0.402,0.324,0.541,0.544
				c0.13,0.203,0.232,0.437,0.306,0.7s0.123,0.548,0.15,0.854c0.606-0.296,1.116-0.542,1.528-0.736s0.915-0.433,1.507-0.716
				c0.261-0.123,0.459-0.242,0.594-0.355c0.135-0.114,0.25-0.231,0.345-0.351c0.069-0.089,0.131-0.206,0.187-0.349
				c0.056-0.143,0.095-0.264,0.118-0.362L15.696,40.934z M9.08,42.76c-0.489-0.096-0.905-0.031-1.247,0.196
				c-0.341,0.226-0.562,0.597-0.663,1.111l-0.19,0.973l3.465,0.678l0.147-0.75c0.103-0.526,0.021-0.998-0.247-1.415
				C10.078,43.138,9.657,42.873,9.08,42.76z"/>
			<path i:knockout="Off" fill="#FFFFFF" d="M11.592,30.769c-0.039,0.102-0.079,0.258-0.122,0.469s-0.05,0.393-0.023,0.548
				c0.031,0.157,0.165,0.313,0.403,0.468s0.543,0.312,0.915,0.468l3.311,1.396c0.422,0.178,0.751,0.42,0.989,0.726
				c0.237,0.306,0.396,0.644,0.476,1.013c0.075,0.363,0.088,0.718,0.041,1.065c-0.048,0.347-0.131,0.663-0.251,0.948
				c-0.192,0.456-0.424,0.836-0.694,1.142s-0.558,0.537-0.864,0.692c-0.304,0.153-0.614,0.234-0.928,0.244
				c-0.314,0.01-0.614-0.045-0.9-0.166l-4.501-1.899c-0.125-0.053-0.239-0.076-0.34-0.07s-0.215,0.057-0.34,0.153
				c-0.088,0.069-0.177,0.168-0.267,0.296s-0.158,0.236-0.203,0.323L7.92,38.428l1.33-3.153l0.375,0.158
				c-0.038,0.101-0.075,0.232-0.109,0.395c-0.035,0.162-0.055,0.284-0.06,0.365c-0.008,0.139,0.03,0.25,0.113,0.332
				c0.083,0.083,0.184,0.149,0.301,0.199l4.204,1.773c0.204,0.086,0.427,0.154,0.669,0.203s0.488,0.049,0.737-0.002
				c0.255-0.057,0.497-0.179,0.723-0.366c0.226-0.187,0.428-0.49,0.604-0.909c0.166-0.394,0.243-0.75,0.23-1.07
				c-0.013-0.319-0.088-0.599-0.227-0.839c-0.131-0.228-0.289-0.417-0.474-0.567c-0.186-0.15-0.385-0.27-0.6-0.361l-3.121-1.316
				c-0.396-0.167-0.733-0.276-1.009-0.325s-0.477-0.036-0.602,0.042c-0.142,0.087-0.283,0.227-0.424,0.421
				c-0.141,0.194-0.239,0.346-0.294,0.457l-0.375-0.158l1.306-3.095L11.592,30.769z"/>
			<path i:knockout="Off" fill="#FFFFFF" d="M18.759,27.248c0.269-0.109,0.557-0.157,0.864-0.142
				c0.308,0.014,0.618,0.126,0.93,0.334c0.319,0.213,0.55,0.468,0.692,0.764c0.143,0.295,0.215,0.605,0.218,0.929
				c0.004,0.315-0.046,0.634-0.151,0.958c-0.105,0.324-0.254,0.631-0.448,0.921l-2.171,3.248l-0.338-0.226
				c0.045-0.082,0.107-0.204,0.186-0.367s0.125-0.286,0.139-0.37c0.022-0.13,0.009-0.242-0.039-0.334s-0.131-0.179-0.25-0.259
				l-4.939-3.301c-0.11-0.073-0.219-0.119-0.328-0.138s-0.227,0.01-0.352,0.086c-0.114,0.065-0.224,0.15-0.331,0.253
				c-0.106,0.103-0.19,0.193-0.251,0.271l-0.337-0.226l2.119-3.171c0.164-0.245,0.345-0.463,0.543-0.656
				c0.198-0.192,0.426-0.349,0.685-0.47c0.24-0.115,0.498-0.169,0.773-0.162s0.552,0.103,0.829,0.288
				c0.242,0.162,0.428,0.349,0.559,0.562c0.131,0.213,0.211,0.444,0.241,0.692c0.03,0.234,0.025,0.477-0.014,0.728
				c-0.039,0.25-0.109,0.503-0.209,0.758l0.043,0.028c0.154-0.181,0.35-0.368,0.588-0.561
				C18.247,27.494,18.497,27.348,18.759,27.248z M16.947,27.728c-0.059-0.212-0.156-0.396-0.289-0.553
				c-0.133-0.156-0.313-0.31-0.539-0.461c-0.377-0.252-0.742-0.347-1.095-0.284c-0.352,0.062-0.676,0.316-0.973,0.76
				c-0.069,0.103-0.153,0.234-0.252,0.393c-0.1,0.16-0.183,0.293-0.251,0.402l2.637,1.762l0.41-0.613
				c0.176-0.264,0.293-0.512,0.352-0.746C17.004,28.154,17.005,27.934,16.947,27.728z M19.568,28.511
				c-0.403-0.27-0.826-0.355-1.268-0.256c-0.442,0.099-0.832,0.401-1.169,0.907c-0.138,0.206-0.252,0.382-0.342,0.527
				s-0.157,0.254-0.201,0.327l2.404,1.606c0.202,0.135,0.409,0.155,0.621,0.059c0.212-0.095,0.417-0.29,0.613-0.583
				c0.32-0.479,0.427-0.94,0.318-1.381C20.435,29.275,20.11,28.874,19.568,28.511z"/>
			<path i:knockout="Off" fill="#FFFFFF" d="M21.856,17.969c-0.043,0.05-0.097,0.144-0.161,0.28s-0.101,0.244-0.111,0.32
				c-0.038,0.173-0.057,0.297-0.059,0.371c-0.001,0.074,0.021,0.241,0.067,0.5c0.098,0.514,0.216,1.015,0.354,1.503
				c0.139,0.489,0.318,1.105,0.539,1.85c0.08,0.275,0.158,0.483,0.234,0.622c0.077,0.138,0.219,0.307,0.425,0.507l1.136,1.095
				c0.101,0.097,0.208,0.161,0.32,0.192c0.113,0.031,0.239,0.02,0.378-0.035c0.079-0.037,0.207-0.115,0.384-0.235
				c0.177-0.119,0.312-0.224,0.403-0.313l0.292,0.282l-2.679,2.778l-0.292-0.282c0.07-0.083,0.173-0.211,0.309-0.383
				s0.221-0.3,0.255-0.386c0.055-0.141,0.065-0.266,0.028-0.374c-0.036-0.108-0.107-0.213-0.213-0.315l-1.446-1.395
				c-0.045-0.043-0.153-0.094-0.324-0.155c-0.171-0.06-0.366-0.122-0.584-0.187c-0.486-0.145-1.016-0.297-1.59-0.458
				c-0.574-0.16-1.068-0.293-1.481-0.402c-0.248-0.061-0.447-0.095-0.597-0.103c-0.15-0.007-0.3,0.006-0.45,0.039
				c-0.106,0.027-0.216,0.076-0.329,0.148s-0.208,0.143-0.287,0.213l-0.292-0.282l2.446-2.537l0.292,0.282
				c-0.269,0.29-0.443,0.51-0.522,0.66c-0.079,0.15-0.088,0.254-0.026,0.313c0.017,0.017,0.054,0.037,0.113,0.06
				c0.058,0.024,0.134,0.052,0.228,0.083c0.107,0.034,0.231,0.071,0.373,0.111c0.142,0.04,0.277,0.08,0.406,0.119
				c0.374,0.109,0.75,0.215,1.127,0.317s0.87,0.235,1.477,0.398c-0.284-1.121-0.512-1.988-0.686-2.6
				c-0.173-0.612-0.298-0.956-0.376-1.03c-0.063-0.061-0.137-0.087-0.222-0.077s-0.176,0.043-0.273,0.1
				c-0.1,0.06-0.199,0.134-0.298,0.222c-0.098,0.088-0.19,0.168-0.277,0.241l-0.292-0.282l1.987-2.061L21.856,17.969z"/>
		</g>
		<g i:knockout="Off">
			<path i:knockout="Off" fill="#FFFFFF" d="M32.496,12.717c0.221,0.369,0.343,0.739,0.368,1.11
				c0.025,0.372-0.036,0.727-0.182,1.066c-0.142,0.338-0.339,0.641-0.592,0.909c-0.252,0.268-0.548,0.503-0.889,0.707l-0.796,0.476
				l1.287,2.152c0.07,0.117,0.15,0.208,0.242,0.273s0.211,0.086,0.359,0.061c0.074-0.013,0.193-0.054,0.357-0.125
				s0.311-0.143,0.439-0.215l0.208,0.349l-3.031,1.812l-0.208-0.349c0.075-0.054,0.183-0.134,0.322-0.24
				c0.14-0.106,0.232-0.19,0.275-0.252c0.073-0.102,0.107-0.208,0.102-0.318s-0.047-0.23-0.125-0.36l-3.06-5.12
				c-0.069-0.116-0.149-0.211-0.238-0.285c-0.089-0.073-0.208-0.097-0.359-0.07c-0.152,0.032-0.295,0.076-0.431,0.132
				c-0.135,0.056-0.25,0.107-0.343,0.154l-0.208-0.349l3.236-1.935c0.659-0.394,1.29-0.555,1.89-0.483
				C31.722,11.888,32.18,12.188,32.496,12.717z M31.699,14.823c0.019-0.227-0.004-0.436-0.069-0.629
				c-0.065-0.192-0.138-0.356-0.219-0.492c-0.113-0.189-0.25-0.367-0.412-0.535c-0.162-0.168-0.342-0.292-0.539-0.372
				c-0.21-0.085-0.437-0.114-0.679-0.086c-0.243,0.028-0.506,0.127-0.791,0.297l-0.708,0.424l1.86,3.111l0.512-0.306
				c0.362-0.216,0.623-0.447,0.783-0.693C31.596,15.297,31.684,15.057,31.699,14.823z"/>
			<path i:knockout="Off" fill="#FFFFFF" d="M42.962,15.249l-2.075,0.797c-0.732-0.541-1.384-1.001-1.954-1.381
				c-0.57-0.38-1.177-0.764-1.823-1.152l-0.806,0.31l0.934,2.433c0.049,0.126,0.111,0.229,0.188,0.31
				c0.076,0.081,0.189,0.121,0.338,0.122c0.075,0,0.197-0.02,0.367-0.061c0.171-0.041,0.312-0.081,0.426-0.12l0.146,0.379
				l-3.238,1.244l-0.146-0.379c0.083-0.04,0.203-0.101,0.359-0.181c0.156-0.081,0.261-0.148,0.314-0.202
				c0.089-0.088,0.141-0.187,0.154-0.296c0.014-0.109-0.006-0.235-0.061-0.376l-2.142-5.579c-0.049-0.127-0.11-0.232-0.183-0.316
				c-0.074-0.084-0.187-0.126-0.338-0.126c-0.102,0.002-0.23,0.017-0.384,0.044c-0.154,0.028-0.282,0.058-0.385,0.089l-0.146-0.379
				l3.551-1.364c0.325-0.125,0.644-0.208,0.955-0.251c0.311-0.043,0.611-0.034,0.899,0.025c0.28,0.059,0.532,0.18,0.755,0.362
				c0.223,0.183,0.398,0.439,0.525,0.769c0.114,0.297,0.17,0.578,0.167,0.841c-0.003,0.263-0.061,0.512-0.174,0.747
				c-0.103,0.218-0.247,0.429-0.431,0.63s-0.398,0.396-0.643,0.581c0.573,0.356,1.051,0.658,1.435,0.904
				c0.384,0.247,0.853,0.545,1.408,0.896c0.242,0.156,0.448,0.26,0.616,0.314c0.168,0.054,0.329,0.089,0.48,0.106
				c0.112,0.011,0.244,0.002,0.395-0.027s0.274-0.06,0.37-0.092L42.962,15.249z M37.901,10.613
				c-0.179-0.465-0.455-0.783-0.828-0.952s-0.805-0.16-1.294,0.028l-0.925,0.355l1.266,3.296l0.713-0.274
				c0.5-0.192,0.856-0.512,1.068-0.959C38.111,11.66,38.112,11.161,37.901,10.613z"/>
			<path i:knockout="Off" fill="#FFFFFF" d="M48.003,6.865c0.42,0.317,0.774,0.725,1.063,1.223c0.289,0.498,0.485,1.069,0.589,1.712
				c0.105,0.647,0.097,1.252-0.024,1.814s-0.334,1.059-0.641,1.49c-0.296,0.425-0.663,0.776-1.1,1.051
				c-0.438,0.275-0.923,0.457-1.454,0.542c-0.566,0.092-1.105,0.07-1.62-0.065s-0.974-0.364-1.379-0.688
				c-0.404-0.316-0.748-0.723-1.03-1.222c-0.283-0.499-0.473-1.051-0.571-1.656c-0.107-0.663-0.1-1.271,0.022-1.823
				c0.123-0.553,0.334-1.048,0.636-1.486c0.298-0.433,0.669-0.788,1.113-1.064c0.444-0.276,0.925-0.457,1.445-0.541
				c0.539-0.087,1.063-0.068,1.574,0.058C47.137,6.335,47.596,6.553,48.003,6.865z M48.085,12.786
				c0.158-0.384,0.25-0.804,0.275-1.26s-0.005-0.957-0.093-1.501c-0.091-0.56-0.229-1.064-0.413-1.515
				c-0.185-0.45-0.409-0.823-0.672-1.118c-0.263-0.292-0.568-0.503-0.915-0.634s-0.724-0.163-1.133-0.097
				c-0.458,0.075-0.831,0.243-1.118,0.506c-0.287,0.263-0.503,0.587-0.648,0.972c-0.136,0.368-0.215,0.786-0.235,1.254
				c-0.02,0.467,0.01,0.95,0.091,1.449c0.089,0.552,0.22,1.042,0.391,1.471c0.171,0.429,0.392,0.798,0.662,1.108
				c0.261,0.304,0.564,0.525,0.908,0.664c0.344,0.139,0.734,0.173,1.169,0.103c0.409-0.066,0.762-0.221,1.06-0.466
				C47.711,13.476,47.935,13.165,48.085,12.786z"/>
			<path i:knockout="Off" fill="#FFFFFF" d="M58.825,10.961c-0.095,0.007-0.223,0.02-0.384,0.037
				c-0.16,0.018-0.291,0.047-0.392,0.089c-0.121,0.052-0.209,0.131-0.263,0.235c-0.055,0.104-0.085,0.229-0.093,0.372l-0.031,0.641
				c-0.022,0.466-0.035,0.781-0.037,0.944s-0.002,0.297,0.001,0.403c-0.525,0.208-1.047,0.362-1.563,0.461
				c-0.517,0.099-1.02,0.137-1.511,0.113c-0.526-0.025-1.028-0.149-1.506-0.371c-0.478-0.222-0.89-0.523-1.235-0.906
				c-0.35-0.386-0.62-0.848-0.811-1.387c-0.191-0.538-0.271-1.133-0.239-1.785c0.03-0.629,0.162-1.207,0.395-1.734
				s0.548-0.979,0.946-1.357c0.386-0.37,0.838-0.65,1.357-0.841c0.519-0.191,1.067-0.272,1.647-0.244
				c0.464,0.023,0.864,0.1,1.203,0.231c0.338,0.131,0.635,0.283,0.89,0.454l0.257-0.383l0.469,0.023l-0.094,2.889L57.35,8.824
				C57.283,8.5,57.198,8.18,57.094,7.863c-0.104-0.316-0.245-0.602-0.422-0.857c-0.178-0.255-0.398-0.463-0.664-0.623
				c-0.265-0.16-0.586-0.249-0.965-0.268c-0.413-0.02-0.785,0.047-1.118,0.2c-0.332,0.154-0.627,0.392-0.882,0.714
				c-0.251,0.312-0.453,0.705-0.604,1.181s-0.24,1.011-0.27,1.605c-0.025,0.525,0.014,1.022,0.117,1.493
				c0.103,0.471,0.267,0.881,0.491,1.23c0.223,0.357,0.51,0.645,0.861,0.86c0.352,0.216,0.756,0.334,1.213,0.357
				c0.341,0.017,0.655-0.021,0.94-0.112c0.286-0.091,0.49-0.192,0.612-0.303c0.041-0.201,0.067-0.404,0.079-0.61
				c0.013-0.206,0.021-0.381,0.029-0.525l0.021-0.455c0.008-0.164-0.007-0.309-0.046-0.438c-0.038-0.128-0.125-0.225-0.261-0.291
				c-0.125-0.064-0.296-0.116-0.513-0.156c-0.217-0.04-0.387-0.066-0.51-0.08l0.02-0.406l3.62,0.176L58.825,10.961z"/>
			<path i:knockout="Off" fill="#FFFFFF" d="M66.39,16.32l-2.152-0.555c-0.283-0.865-0.547-1.618-0.79-2.258
				c-0.244-0.64-0.516-1.306-0.816-1.996l-0.836-0.215l-0.65,2.523c-0.034,0.131-0.043,0.251-0.027,0.361s0.084,0.208,0.205,0.295
				c0.061,0.043,0.172,0.098,0.334,0.164s0.302,0.115,0.416,0.149l-0.102,0.394l-3.358-0.866l0.102-0.394
				c0.091,0.016,0.223,0.036,0.397,0.061c0.174,0.025,0.298,0.031,0.373,0.018c0.123-0.02,0.223-0.071,0.297-0.152
				c0.074-0.082,0.131-0.195,0.169-0.342l1.491-5.787c0.034-0.131,0.045-0.253,0.034-0.364c-0.012-0.111-0.078-0.21-0.202-0.298
				C61.188,7,61.076,6.938,60.935,6.871c-0.142-0.066-0.263-0.117-0.365-0.151l0.102-0.394l3.684,0.95
				C64.692,7.363,65,7.479,65.278,7.625c0.278,0.146,0.518,0.327,0.718,0.543c0.193,0.21,0.329,0.455,0.405,0.733
				s0.07,0.589-0.019,0.931c-0.079,0.309-0.196,0.569-0.352,0.782c-0.155,0.213-0.347,0.382-0.575,0.508
				c-0.211,0.118-0.45,0.206-0.717,0.264s-0.554,0.091-0.86,0.1c0.26,0.623,0.475,1.146,0.644,1.569
				c0.17,0.423,0.379,0.939,0.627,1.546c0.107,0.268,0.214,0.472,0.319,0.614s0.216,0.263,0.33,0.365
				c0.085,0.074,0.197,0.143,0.337,0.207c0.14,0.064,0.258,0.111,0.354,0.14L66.39,16.32z M64.956,9.607
				c0.125-0.482,0.084-0.901-0.121-1.256c-0.206-0.354-0.562-0.597-1.071-0.728l-0.959-0.247l-0.882,3.419l0.74,0.19
				c0.519,0.134,0.994,0.08,1.426-0.162S64.81,10.177,64.956,9.607z"/>
			<path i:knockout="Off" fill="#FFFFFF" d="M73.254,19.78l-3.088-1.503l0.178-0.365c0.28,0.115,0.523,0.19,0.729,0.225
				c0.205,0.035,0.326,0.014,0.364-0.063c0.015-0.031,0.03-0.071,0.045-0.121c0.016-0.049,0.024-0.094,0.028-0.136l0.195-1.971
				l-2.588-1.26c-0.218,0.197-0.401,0.372-0.552,0.524c-0.149,0.152-0.287,0.293-0.411,0.423c-0.118,0.128-0.21,0.236-0.273,0.321
				c-0.063,0.086-0.109,0.159-0.139,0.219c-0.068,0.14-0.012,0.302,0.171,0.486c0.182,0.184,0.407,0.35,0.676,0.498l-0.178,0.365
				l-2.8-1.363l0.178-0.365c0.095,0.037,0.218,0.072,0.369,0.105c0.152,0.033,0.285,0.043,0.399,0.03
				c0.186-0.026,0.341-0.072,0.468-0.138s0.271-0.171,0.433-0.316c0.825-0.749,1.746-1.594,2.761-2.536s1.918-1.78,2.712-2.514
				l0.418,0.204l-0.643,7.602c-0.015,0.162-0.009,0.3,0.017,0.416c0.025,0.116,0.078,0.243,0.158,0.38
				c0.056,0.088,0.141,0.18,0.253,0.275c0.113,0.096,0.213,0.167,0.298,0.213L73.254,19.78z M71.74,15.29l0.276-3.402l-2.492,2.323
				L71.74,15.29z"/>
			<path i:knockout="Off" fill="#FFFFFF" d="M80.921,26.009l-2.82-2.327l0.259-0.313c0.104,0.081,0.243,0.178,0.417,0.292
				c0.175,0.114,0.305,0.179,0.392,0.195c0.14,0.019,0.261,0.01,0.365-0.028c0.104-0.037,0.201-0.111,0.292-0.222l3.823-4.632
				l-0.067-0.056l-6.642,3.624l-0.225-0.185l2.493-7.236l-0.059-0.048l-3.138,3.802c-0.304,0.368-0.512,0.667-0.623,0.897
				s-0.154,0.426-0.127,0.589c0.014,0.117,0.101,0.29,0.261,0.517c0.16,0.228,0.271,0.369,0.33,0.424l-0.258,0.313l-2.567-2.119
				l0.259-0.313c0.144,0.099,0.303,0.192,0.478,0.281c0.175,0.089,0.329,0.133,0.464,0.134c0.174,0.002,0.352-0.068,0.533-0.209
				c0.183-0.142,0.441-0.416,0.777-0.823l2.691-3.261c0.156-0.189,0.261-0.362,0.314-0.519s0.07-0.307,0.048-0.451
				c-0.025-0.157-0.09-0.311-0.192-0.461s-0.217-0.282-0.344-0.396l0.259-0.313l2.169,1.79l-2.132,6.283l4.87-2.71
				c0.178-0.1,0.353-0.213,0.525-0.339c0.173-0.127,0.283-0.216,0.33-0.267l2.083,1.718l-0.259,0.313
				c-0.086-0.066-0.205-0.141-0.354-0.225c-0.15-0.083-0.265-0.139-0.342-0.168c-0.131-0.048-0.25-0.045-0.354,0.009
				c-0.105,0.055-0.199,0.131-0.28,0.23l-3.792,4.595c-0.087,0.105-0.142,0.208-0.165,0.31c-0.023,0.102-0.006,0.222,0.052,0.36
				c0.029,0.075,0.103,0.182,0.221,0.322c0.117,0.139,0.215,0.244,0.294,0.314L80.921,26.009z"/>
			<path i:knockout="Off" fill="#FFFFFF" d="M86.803,34.259l-2.118-2.98l0.332-0.235c0.079,0.105,0.188,0.235,0.326,0.39
				c0.139,0.155,0.248,0.251,0.328,0.29c0.129,0.055,0.249,0.078,0.358,0.068c0.11-0.009,0.224-0.056,0.341-0.139l4.896-3.479
				l-0.051-0.071l-7.355,1.772l-0.168-0.237l4.288-6.339l-0.044-0.062l-4.018,2.855c-0.389,0.276-0.667,0.511-0.835,0.704
				c-0.168,0.193-0.26,0.371-0.276,0.536c-0.017,0.117,0.022,0.306,0.118,0.567c0.095,0.261,0.165,0.426,0.209,0.495l-0.331,0.235
				l-1.929-2.713l0.331-0.235c0.113,0.133,0.243,0.265,0.389,0.396s0.283,0.214,0.413,0.25c0.167,0.047,0.356,0.026,0.569-0.063
				s0.534-0.287,0.965-0.593l3.446-2.45c0.2-0.142,0.346-0.281,0.438-0.418s0.147-0.278,0.164-0.423
				c0.016-0.158-0.006-0.324-0.066-0.495c-0.06-0.171-0.136-0.329-0.229-0.472l0.331-0.235l1.629,2.292l-3.691,5.513l5.407-1.351
				c0.197-0.05,0.396-0.113,0.596-0.191c0.199-0.078,0.329-0.135,0.388-0.172l1.564,2.201l-0.331,0.235
				c-0.066-0.086-0.161-0.189-0.284-0.31c-0.123-0.12-0.219-0.203-0.285-0.25c-0.115-0.081-0.23-0.109-0.346-0.084
				c-0.116,0.025-0.226,0.075-0.33,0.149l-4.856,3.452c-0.111,0.079-0.191,0.164-0.24,0.256c-0.049,0.092-0.062,0.212-0.043,0.361
				c0.009,0.08,0.052,0.202,0.129,0.368c0.077,0.165,0.145,0.292,0.202,0.38L86.803,34.259z"/>
			<path i:knockout="Off" fill="#FFFFFF" d="M91.527,39.625c-0.186,0.019-0.49,0.011-0.915-0.023
				c-0.424-0.034-0.756-0.098-0.996-0.19c-0.09-0.034-0.185-0.115-0.282-0.244c-0.099-0.129-0.184-0.258-0.254-0.388
				c-0.07-0.126-0.146-0.286-0.227-0.479c-0.08-0.193-0.146-0.348-0.195-0.466c-0.124-0.297-0.21-0.529-0.258-0.698
				s-0.058-0.314-0.029-0.436s0.102-0.226,0.221-0.312c0.117-0.087,0.29-0.179,0.519-0.274l2.272-0.953l0.362,0.862
				c0.098,0.233,0.154,0.43,0.172,0.59c0.017,0.16-0.021,0.325-0.114,0.495c-0.058,0.104-0.168,0.228-0.333,0.371
				s-0.33,0.258-0.495,0.344l0.169,0.404l2.983-1.251l-0.17-0.404c-0.16,0.046-0.339,0.078-0.535,0.095
				c-0.195,0.017-0.362,0.007-0.498-0.028c-0.162-0.046-0.296-0.123-0.4-0.229c-0.105-0.105-0.216-0.297-0.332-0.574l-0.361-0.862
				l2.997-1.257l0.503,1.2c0.083,0.197,0.152,0.374,0.211,0.531c0.058,0.157,0.103,0.294,0.135,0.411
				c0.062,0.227-0.007,0.523-0.206,0.887c-0.2,0.364-0.418,0.638-0.654,0.821l0.169,0.404l1.83-0.768l-2.472-5.894l-0.375,0.157
				c0.033,0.1,0.066,0.238,0.099,0.415s0.045,0.324,0.039,0.44c-0.005,0.148-0.045,0.262-0.119,0.339
				c-0.075,0.077-0.172,0.141-0.29,0.19l-5.479,2.298c-0.132,0.056-0.251,0.079-0.355,0.07c-0.104-0.008-0.208-0.059-0.31-0.15
				c-0.047-0.043-0.12-0.149-0.218-0.317c-0.099-0.168-0.174-0.305-0.226-0.409l-0.374,0.157l2.652,6.325l2.309-0.798L91.527,39.625
				z"/>
			<path i:knockout="Off" fill="#FFFFFF" d="M91.157,49.138l-0.448-2.177c0.652-0.635,1.213-1.202,1.681-1.703
				c0.468-0.5,0.945-1.037,1.434-1.61l-0.174-0.846l-2.553,0.525c-0.132,0.027-0.244,0.072-0.336,0.134
				c-0.092,0.062-0.15,0.167-0.175,0.314c-0.013,0.073-0.013,0.197,0,0.372c0.012,0.175,0.028,0.321,0.049,0.439l-0.397,0.082
				l-0.699-3.397l0.397-0.082c0.026,0.088,0.066,0.216,0.12,0.384c0.055,0.167,0.104,0.281,0.148,0.343
				c0.072,0.103,0.161,0.169,0.267,0.2c0.106,0.031,0.233,0.032,0.381,0.001l5.854-1.205c0.133-0.027,0.247-0.07,0.342-0.129
				c0.095-0.059,0.155-0.164,0.18-0.313c0.015-0.101,0.021-0.229,0.019-0.386c-0.003-0.156-0.011-0.288-0.024-0.395l0.397-0.082
				l0.767,3.726c0.07,0.341,0.102,0.669,0.093,0.983c-0.009,0.314-0.066,0.608-0.172,0.883c-0.104,0.267-0.265,0.495-0.48,0.686
				c-0.217,0.191-0.498,0.322-0.845,0.393c-0.312,0.064-0.598,0.074-0.857,0.028c-0.259-0.045-0.495-0.144-0.708-0.293
				c-0.199-0.137-0.383-0.313-0.552-0.528c-0.17-0.214-0.325-0.458-0.469-0.729c-0.445,0.507-0.82,0.931-1.126,1.269
				c-0.306,0.338-0.677,0.752-1.113,1.243c-0.193,0.214-0.33,0.399-0.411,0.557c-0.08,0.157-0.142,0.31-0.183,0.457
				c-0.029,0.109-0.041,0.24-0.037,0.394c0.003,0.154,0.014,0.28,0.03,0.38L91.157,49.138z M96.556,44.9
				c0.488-0.101,0.846-0.321,1.074-0.662c0.228-0.341,0.289-0.768,0.183-1.282l-0.199-0.971l-3.459,0.712l0.154,0.748
				c0.107,0.525,0.365,0.929,0.772,1.21C95.488,44.937,95.979,45.018,96.556,44.9z"/>
		</g>
		<g i:knockout="Off">
			<path i:knockout="Off" d="M15.209,40.723l-0.411,2.184c-0.844,0.34-1.578,0.653-2.201,0.938
				c-0.623,0.285-1.269,0.601-1.938,0.946L10.5,45.64l2.561,0.482c0.133,0.025,0.253,0.026,0.362,0.003
				c0.108-0.023,0.202-0.098,0.281-0.224c0.04-0.063,0.086-0.178,0.141-0.345c0.055-0.167,0.095-0.308,0.121-0.425l0.399,0.075
				l-0.641,3.409l-0.399-0.075c0.009-0.092,0.021-0.225,0.034-0.4s0.011-0.3-0.007-0.374c-0.028-0.122-0.085-0.218-0.171-0.287
				s-0.203-0.118-0.352-0.146l-5.873-1.105c-0.133-0.025-0.255-0.028-0.366-0.01c-0.11,0.019-0.205,0.093-0.285,0.222
				c-0.052,0.088-0.106,0.205-0.164,0.35c-0.057,0.146-0.099,0.271-0.126,0.375L5.617,47.09l0.703-3.738
				c0.064-0.343,0.161-0.657,0.288-0.945c0.127-0.287,0.292-0.538,0.495-0.752c0.197-0.207,0.432-0.358,0.705-0.452
				c0.272-0.094,0.583-0.109,0.93-0.044c0.313,0.059,0.581,0.159,0.804,0.299c0.222,0.141,0.404,0.321,0.544,0.541
				c0.132,0.203,0.235,0.435,0.311,0.698c0.075,0.262,0.127,0.546,0.157,0.852c0.604-0.301,1.112-0.55,1.523-0.747
				c0.411-0.197,0.912-0.439,1.501-0.727c0.26-0.125,0.457-0.245,0.591-0.36c0.134-0.115,0.248-0.232,0.342-0.353
				c0.068-0.09,0.13-0.207,0.185-0.35s0.093-0.265,0.116-0.363L15.209,40.723z M8.607,42.597c-0.49-0.092-0.905-0.024-1.245,0.205
				c-0.34,0.229-0.559,0.601-0.655,1.116l-0.184,0.974l3.471,0.653l0.141-0.75c0.099-0.527,0.014-0.998-0.256-1.412
				S9.185,42.705,8.607,42.597z"/>
			<path i:knockout="Off" d="M11,30.598c-0.038,0.103-0.077,0.259-0.117,0.47c-0.04,0.211-0.046,0.394-0.017,0.548
				c0.032,0.156,0.168,0.311,0.408,0.464s0.546,0.306,0.919,0.459l3.324,1.362c0.424,0.174,0.756,0.413,0.997,0.716
				s0.403,0.639,0.487,1.008c0.078,0.362,0.095,0.717,0.051,1.064s-0.125,0.664-0.242,0.95c-0.188,0.458-0.415,0.841-0.682,1.149
				c-0.267,0.309-0.553,0.542-0.857,0.702c-0.303,0.156-0.612,0.24-0.926,0.253c-0.313,0.014-0.614-0.039-0.901-0.157l-4.52-1.853
				c-0.125-0.052-0.239-0.074-0.341-0.067c-0.102,0.007-0.214,0.06-0.338,0.157c-0.087,0.07-0.175,0.169-0.264,0.298
				s-0.155,0.237-0.2,0.325l-0.375-0.154l1.298-3.166l0.375,0.154c-0.037,0.101-0.072,0.233-0.105,0.396s-0.052,0.285-0.056,0.366
				c-0.006,0.138,0.033,0.249,0.116,0.331c0.084,0.082,0.185,0.147,0.304,0.196l4.221,1.73c0.205,0.084,0.428,0.149,0.671,0.196
				c0.243,0.047,0.488,0.044,0.737-0.01c0.255-0.06,0.495-0.184,0.719-0.373c0.224-0.189,0.423-0.495,0.595-0.916
				c0.162-0.396,0.235-0.753,0.22-1.072c-0.016-0.319-0.095-0.599-0.236-0.837c-0.133-0.227-0.293-0.414-0.48-0.562
				c-0.187-0.148-0.388-0.266-0.604-0.354l-3.134-1.284c-0.398-0.164-0.736-0.269-1.012-0.315s-0.477-0.031-0.602,0.047
				c-0.141,0.088-0.281,0.23-0.419,0.426s-0.235,0.349-0.29,0.46L9.35,33.552l1.274-3.108L11,30.598z"/>
			<path i:knockout="Off" d="M18.118,27.018c0.268-0.112,0.555-0.163,0.863-0.152c0.307,0.011,0.619,0.119,0.933,0.324
				c0.322,0.209,0.555,0.461,0.701,0.755c0.146,0.294,0.222,0.603,0.229,0.927c0.008,0.315-0.039,0.635-0.14,0.96
				s-0.247,0.634-0.438,0.926l-2.134,3.272l-0.34-0.222c0.044-0.083,0.105-0.205,0.181-0.369c0.077-0.164,0.122-0.288,0.135-0.372
				c0.02-0.13,0.006-0.242-0.043-0.334s-0.133-0.178-0.253-0.256l-4.976-3.246c-0.111-0.072-0.221-0.117-0.33-0.134
				c-0.109-0.017-0.227,0.013-0.351,0.09c-0.113,0.067-0.222,0.152-0.328,0.257c-0.105,0.104-0.188,0.195-0.248,0.273l-0.34-0.222
				l2.083-3.194c0.161-0.247,0.34-0.468,0.536-0.662s0.423-0.354,0.68-0.478c0.239-0.118,0.496-0.174,0.771-0.171
				c0.275,0.004,0.553,0.096,0.833,0.279c0.244,0.159,0.432,0.344,0.564,0.556c0.133,0.211,0.216,0.441,0.249,0.689
				c0.033,0.234,0.031,0.477-0.006,0.729c-0.037,0.251-0.104,0.504-0.201,0.76l0.042,0.028c0.152-0.183,0.346-0.372,0.582-0.567
				C17.609,27.269,17.857,27.12,18.118,27.018z M16.312,27.518c-0.062-0.211-0.16-0.394-0.295-0.549
				c-0.135-0.155-0.316-0.307-0.544-0.456c-0.38-0.248-0.746-0.338-1.097-0.272s-0.673,0.323-0.965,0.771
				c-0.067,0.104-0.15,0.236-0.248,0.396c-0.098,0.161-0.18,0.295-0.247,0.404l2.657,1.733l0.403-0.618
				c0.173-0.266,0.288-0.515,0.343-0.75C16.374,27.943,16.372,27.723,16.312,27.518z M18.941,28.271
				c-0.407-0.265-0.83-0.346-1.271-0.242c-0.44,0.104-0.827,0.411-1.159,0.92c-0.136,0.208-0.248,0.385-0.336,0.531
				c-0.088,0.146-0.154,0.256-0.197,0.329l2.421,1.579c0.203,0.133,0.411,0.15,0.622,0.052c0.211-0.098,0.414-0.295,0.606-0.59
				c0.315-0.483,0.417-0.945,0.303-1.385C19.817,29.025,19.487,28.627,18.941,28.271z"/>
			<path i:knockout="Off" d="M21.055,17.712c-0.042,0.051-0.094,0.146-0.157,0.283c-0.062,0.138-0.097,0.245-0.105,0.322
				c-0.035,0.174-0.052,0.298-0.053,0.372c0,0.074,0.025,0.241,0.076,0.5c0.106,0.512,0.232,1.012,0.379,1.498
				c0.146,0.486,0.336,1.1,0.568,1.841c0.084,0.274,0.166,0.48,0.244,0.618c0.079,0.137,0.224,0.304,0.434,0.5l1.154,1.077
				c0.102,0.095,0.21,0.158,0.324,0.187c0.113,0.029,0.239,0.016,0.377-0.041c0.078-0.038,0.205-0.119,0.38-0.241
				c0.175-0.123,0.308-0.229,0.398-0.32l0.297,0.277l-2.634,2.821l-0.297-0.277c0.068-0.084,0.169-0.214,0.302-0.388
				c0.133-0.174,0.216-0.304,0.249-0.39c0.053-0.142,0.061-0.267,0.022-0.374s-0.111-0.211-0.219-0.312l-1.469-1.371
				C21.281,24.25,21.172,24.2,21,24.143c-0.172-0.058-0.368-0.117-0.587-0.178c-0.488-0.137-1.021-0.281-1.597-0.432
				c-0.577-0.151-1.073-0.277-1.488-0.378c-0.249-0.057-0.449-0.088-0.599-0.093s-0.3,0.011-0.449,0.046
				c-0.106,0.029-0.215,0.08-0.326,0.153c-0.111,0.074-0.206,0.146-0.283,0.218l-0.297-0.277l2.405-2.576l0.297,0.277
				c-0.264,0.294-0.435,0.517-0.512,0.667c-0.077,0.151-0.084,0.256-0.021,0.314c0.018,0.016,0.055,0.036,0.114,0.058
				c0.059,0.023,0.135,0.049,0.229,0.079c0.108,0.032,0.232,0.067,0.375,0.105c0.142,0.038,0.278,0.076,0.408,0.112
				c0.375,0.103,0.753,0.203,1.132,0.299c0.379,0.096,0.874,0.221,1.483,0.374c-0.302-1.116-0.545-1.979-0.728-2.588
				c-0.183-0.609-0.314-0.951-0.393-1.024c-0.064-0.06-0.139-0.084-0.223-0.073c-0.084,0.012-0.175,0.046-0.271,0.105
				c-0.099,0.061-0.197,0.137-0.294,0.227s-0.188,0.172-0.273,0.246l-0.297-0.277l1.954-2.093L21.055,17.712z"/>
			<path i:knockout="Off" d="M31.418,12.509c0.227,0.365,0.356,0.733,0.387,1.104s-0.023,0.728-0.163,1.069
				c-0.137,0.34-0.329,0.647-0.576,0.919c-0.247,0.273-0.539,0.514-0.876,0.723l-0.788,0.49l1.324,2.129
				c0.072,0.116,0.154,0.206,0.247,0.27c0.092,0.063,0.212,0.082,0.36,0.054c0.074-0.014,0.192-0.057,0.355-0.131
				c0.163-0.074,0.308-0.148,0.436-0.223l0.214,0.345l-2.999,1.865l-0.214-0.345c0.074-0.055,0.18-0.137,0.318-0.246
				c0.138-0.109,0.229-0.194,0.271-0.257c0.071-0.104,0.103-0.21,0.096-0.32c-0.007-0.11-0.051-0.229-0.13-0.358L26.53,14.53
				c-0.072-0.115-0.153-0.209-0.243-0.281c-0.09-0.072-0.21-0.093-0.36-0.064c-0.151,0.035-0.293,0.082-0.428,0.14
				c-0.134,0.059-0.248,0.112-0.34,0.16l-0.214-0.345l3.202-1.991c0.652-0.406,1.279-0.578,1.881-0.517
				C30.629,11.694,31.093,11.986,31.418,12.509z M30.658,14.629c0.015-0.227-0.012-0.437-0.08-0.628
				c-0.068-0.191-0.144-0.354-0.228-0.488c-0.116-0.187-0.256-0.362-0.421-0.528s-0.347-0.286-0.546-0.362
				c-0.211-0.082-0.438-0.106-0.68-0.074c-0.242,0.033-0.504,0.136-0.786,0.312l-0.701,0.436l1.914,3.079l0.507-0.315
				c0.358-0.223,0.615-0.458,0.771-0.707C30.563,15.104,30.647,14.863,30.658,14.629z"/>
			<path i:knockout="Off" d="M42.03,14.829l-2.062,0.827c-0.741-0.53-1.399-0.98-1.974-1.352c-0.575-0.372-1.188-0.747-1.839-1.126
				l-0.802,0.321l0.969,2.419c0.051,0.125,0.114,0.228,0.192,0.307s0.191,0.118,0.34,0.116c0.075,0,0.197-0.022,0.366-0.066
				c0.17-0.043,0.312-0.085,0.424-0.126l0.151,0.377l-3.22,1.291l-0.151-0.377c0.083-0.042,0.201-0.104,0.356-0.187
				c0.155-0.083,0.258-0.151,0.311-0.207c0.088-0.089,0.138-0.189,0.15-0.298s-0.01-0.234-0.066-0.375l-2.224-5.547
				c-0.05-0.126-0.113-0.23-0.188-0.313s-0.188-0.123-0.34-0.121c-0.102,0.003-0.23,0.021-0.383,0.05
				c-0.153,0.03-0.281,0.062-0.384,0.094l-0.151-0.377l3.531-1.416c0.323-0.13,0.641-0.218,0.951-0.265s0.61-0.043,0.9,0.013
				c0.281,0.055,0.534,0.172,0.76,0.351s0.405,0.433,0.537,0.761c0.119,0.296,0.178,0.576,0.179,0.839
				c0.001,0.263-0.053,0.513-0.163,0.75c-0.1,0.22-0.24,0.432-0.421,0.636c-0.181,0.205-0.393,0.401-0.634,0.59
				c0.578,0.348,1.061,0.643,1.448,0.883c0.387,0.241,0.86,0.533,1.42,0.875c0.245,0.152,0.452,0.254,0.621,0.305
				c0.169,0.052,0.33,0.085,0.482,0.099c0.112,0.009,0.244-0.001,0.394-0.033c0.151-0.031,0.273-0.063,0.369-0.098L42.03,14.829z
				 M36.902,10.267c-0.186-0.462-0.466-0.776-0.842-0.94c-0.375-0.164-0.807-0.148-1.293,0.047l-0.92,0.369l1.314,3.278l0.709-0.284
				c0.498-0.199,0.849-0.524,1.053-0.975C37.127,11.311,37.121,10.813,36.902,10.267z"/>
			<path i:knockout="Off" d="M46.997,6.662c0.424,0.312,0.784,0.714,1.08,1.208c0.295,0.494,0.5,1.062,0.613,1.704
				c0.114,0.646,0.114,1.25,0.001,1.814c-0.113,0.563-0.319,1.063-0.62,1.499c-0.29,0.429-0.652,0.785-1.085,1.066
				c-0.434,0.282-0.917,0.469-1.446,0.562c-0.564,0.1-1.104,0.085-1.621-0.042c-0.516-0.127-0.979-0.351-1.389-0.668
				c-0.409-0.31-0.758-0.712-1.047-1.207c-0.29-0.495-0.488-1.044-0.594-1.648c-0.117-0.661-0.118-1.269-0.003-1.823
				C41,8.572,41.205,8.074,41.5,7.631c0.292-0.438,0.658-0.798,1.098-1.08c0.439-0.283,0.919-0.47,1.438-0.561
				c0.538-0.095,1.062-0.083,1.575,0.036C46.123,6.144,46.584,6.356,46.997,6.662z M47.161,12.582
				c0.152-0.386,0.238-0.807,0.258-1.264s-0.019-0.957-0.114-1.5c-0.099-0.558-0.243-1.062-0.434-1.509S46.45,7.492,46.183,7.2
				c-0.267-0.288-0.575-0.495-0.923-0.621c-0.348-0.126-0.727-0.153-1.134-0.081c-0.458,0.081-0.828,0.254-1.111,0.521
				C42.731,7.286,42.52,7.613,42.38,8c-0.131,0.371-0.204,0.79-0.218,1.257c-0.014,0.467,0.023,0.95,0.111,1.447
				c0.097,0.551,0.234,1.039,0.412,1.465c0.177,0.426,0.403,0.792,0.677,1.099c0.265,0.3,0.571,0.518,0.917,0.652
				c0.346,0.134,0.736,0.163,1.171,0.086c0.408-0.072,0.759-0.232,1.053-0.481C46.796,13.276,47.016,12.962,47.161,12.582z"/>
			<path i:knockout="Off" d="M58.017,10.607c-0.095,0.008-0.223,0.022-0.383,0.042c-0.161,0.02-0.291,0.051-0.391,0.094
				c-0.121,0.054-0.207,0.134-0.261,0.239c-0.053,0.105-0.082,0.229-0.087,0.373l-0.022,0.642c-0.017,0.466-0.025,0.781-0.025,0.944
				c0,0.164,0.002,0.298,0.007,0.403c-0.523,0.215-1.042,0.376-1.558,0.482c-0.516,0.106-1.019,0.151-1.51,0.133
				c-0.526-0.019-1.03-0.136-1.51-0.351c-0.48-0.215-0.896-0.512-1.247-0.89c-0.355-0.382-0.631-0.84-0.829-1.376
				c-0.198-0.536-0.286-1.129-0.262-1.782c0.022-0.629,0.146-1.208,0.372-1.739c0.226-0.53,0.536-0.986,0.929-1.369
				c0.381-0.375,0.83-0.661,1.346-0.859c0.516-0.197,1.063-0.286,1.645-0.265c0.464,0.017,0.865,0.088,1.205,0.215
				c0.341,0.127,0.639,0.274,0.896,0.442L56.584,5.6l0.469,0.017l-0.056,2.891L56.513,8.49c-0.07-0.324-0.159-0.643-0.268-0.958
				c-0.109-0.315-0.254-0.599-0.435-0.852c-0.18-0.253-0.403-0.458-0.671-0.614c-0.267-0.156-0.59-0.241-0.969-0.255
				c-0.413-0.015-0.785,0.057-1.115,0.215c-0.331,0.158-0.622,0.399-0.873,0.725c-0.248,0.315-0.443,0.711-0.588,1.188
				s-0.227,1.014-0.249,1.609c-0.019,0.525,0.027,1.022,0.137,1.491c0.109,0.469,0.278,0.877,0.507,1.224
				c0.228,0.354,0.519,0.638,0.873,0.849c0.354,0.211,0.759,0.325,1.217,0.341c0.341,0.012,0.654-0.029,0.938-0.125
				c0.285-0.095,0.488-0.199,0.608-0.312c0.038-0.201,0.062-0.405,0.071-0.611c0.01-0.206,0.017-0.381,0.021-0.525l0.017-0.456
				c0.006-0.164-0.012-0.309-0.052-0.437s-0.128-0.224-0.266-0.287c-0.125-0.062-0.297-0.112-0.514-0.149
				c-0.218-0.037-0.388-0.062-0.512-0.074l0.015-0.406l3.623,0.128L58.017,10.607z"/>
			<path i:knockout="Off" d="M65.67,15.859l-2.16-0.525c-0.295-0.861-0.569-1.61-0.821-2.247c-0.253-0.637-0.534-1.298-0.844-1.984
				l-0.839-0.204l-0.615,2.533c-0.032,0.131-0.04,0.251-0.022,0.361c0.017,0.11,0.087,0.207,0.209,0.292
				c0.062,0.042,0.173,0.096,0.337,0.159c0.163,0.063,0.303,0.111,0.418,0.143l-0.096,0.395l-3.371-0.819l0.096-0.395
				c0.092,0.014,0.225,0.033,0.398,0.055c0.175,0.022,0.299,0.027,0.373,0.013c0.124-0.021,0.223-0.073,0.296-0.156
				c0.073-0.082,0.128-0.197,0.163-0.344l1.411-5.807c0.032-0.132,0.042-0.253,0.029-0.364s-0.082-0.209-0.207-0.296
				c-0.085-0.056-0.198-0.117-0.341-0.182c-0.143-0.064-0.265-0.113-0.367-0.146l0.096-0.395l3.697,0.898
				c0.339,0.083,0.647,0.195,0.928,0.337c0.28,0.142,0.522,0.32,0.726,0.533c0.196,0.208,0.335,0.45,0.415,0.728
				s0.078,0.587-0.005,0.931c-0.075,0.31-0.189,0.572-0.341,0.787c-0.152,0.215-0.342,0.387-0.568,0.515
				c-0.209,0.121-0.447,0.212-0.713,0.273c-0.267,0.062-0.553,0.099-0.859,0.112c0.269,0.619,0.491,1.139,0.666,1.56
				s0.392,0.933,0.647,1.538c0.111,0.266,0.221,0.469,0.328,0.609c0.108,0.14,0.22,0.26,0.335,0.36
				c0.086,0.073,0.199,0.14,0.34,0.202c0.141,0.062,0.26,0.107,0.357,0.135L65.67,15.859z M64.144,9.167
				c0.118-0.484,0.071-0.902-0.14-1.254c-0.21-0.352-0.57-0.589-1.08-0.713l-0.963-0.234l-0.834,3.431l0.742,0.18
				c0.521,0.127,0.996,0.066,1.424-0.182C63.722,10.147,64.005,9.738,64.144,9.167z"/>
			<path i:knockout="Off" d="M72.776,19.373l-3.094-1.49l0.176-0.366c0.281,0.113,0.524,0.187,0.729,0.221s0.326,0.013,0.363-0.065
				c0.016-0.031,0.03-0.072,0.045-0.121c0.016-0.049,0.024-0.094,0.027-0.136l0.188-1.971l-2.594-1.249
				c-0.217,0.198-0.399,0.374-0.549,0.527s-0.286,0.294-0.409,0.425c-0.119,0.129-0.21,0.237-0.272,0.323
				c-0.063,0.086-0.109,0.16-0.138,0.219c-0.068,0.14-0.011,0.302,0.173,0.485c0.183,0.183,0.408,0.348,0.678,0.495l-0.176,0.366
				l-2.806-1.351l0.176-0.366c0.095,0.037,0.218,0.071,0.37,0.104c0.151,0.032,0.285,0.042,0.399,0.028
				c0.185-0.027,0.341-0.074,0.467-0.14c0.127-0.066,0.271-0.172,0.431-0.318c0.823-0.752,1.739-1.602,2.75-2.548
				c1.011-0.946,1.91-1.788,2.7-2.526l0.42,0.202l-0.61,7.604c-0.013,0.162-0.007,0.3,0.02,0.416s0.079,0.243,0.159,0.38
				c0.057,0.087,0.142,0.179,0.255,0.274s0.213,0.166,0.299,0.211L72.776,19.373z M71.243,14.889l0.262-3.403l-2.482,2.334
				L71.243,14.889z"/>
			<path i:knockout="Off" d="M80.468,25.566l-2.832-2.313l0.258-0.315c0.104,0.08,0.243,0.177,0.418,0.29s0.306,0.177,0.393,0.193
				c0.14,0.019,0.261,0.009,0.364-0.029c0.104-0.038,0.201-0.112,0.292-0.224l3.8-4.651l-0.067-0.055l-6.624,3.656l-0.226-0.184
				l2.458-7.248l-0.059-0.048l-3.119,3.817c-0.302,0.369-0.508,0.669-0.618,0.9c-0.111,0.23-0.152,0.427-0.125,0.59
				c0.015,0.117,0.103,0.289,0.264,0.516c0.161,0.227,0.271,0.367,0.332,0.422l-0.257,0.314l-2.577-2.105l0.257-0.315
				c0.145,0.098,0.305,0.191,0.479,0.279s0.33,0.131,0.465,0.131c0.173,0.001,0.351-0.069,0.532-0.212
				c0.181-0.143,0.438-0.418,0.773-0.827l2.675-3.274c0.155-0.189,0.259-0.363,0.312-0.52c0.053-0.157,0.068-0.307,0.046-0.451
				c-0.027-0.157-0.092-0.311-0.195-0.46s-0.219-0.281-0.346-0.395l0.258-0.315l2.177,1.779l-2.101,6.293l4.856-2.734
				c0.177-0.101,0.352-0.214,0.523-0.342s0.282-0.217,0.329-0.269l2.091,1.708l-0.257,0.315c-0.087-0.066-0.205-0.141-0.355-0.223
				c-0.151-0.083-0.265-0.139-0.342-0.167c-0.133-0.048-0.251-0.044-0.355,0.011c-0.105,0.055-0.198,0.132-0.279,0.23l-3.77,4.614
				c-0.086,0.105-0.141,0.208-0.163,0.311c-0.022,0.102-0.005,0.221,0.054,0.359c0.029,0.075,0.104,0.182,0.222,0.32
				c0.118,0.139,0.217,0.243,0.296,0.313L80.468,25.566z"/>
			<path i:knockout="Off" d="M86.416,33.771l-2.141-2.964l0.329-0.238c0.08,0.104,0.19,0.233,0.33,0.387
				c0.14,0.154,0.25,0.25,0.33,0.288c0.13,0.054,0.249,0.076,0.359,0.066c0.109-0.01,0.223-0.057,0.339-0.142l4.869-3.516
				l-0.051-0.071l-7.342,1.828l-0.171-0.236l4.24-6.371l-0.044-0.062l-3.996,2.886c-0.387,0.279-0.663,0.516-0.829,0.71
				c-0.166,0.194-0.257,0.373-0.272,0.538c-0.016,0.117,0.025,0.306,0.122,0.566c0.098,0.26,0.168,0.425,0.213,0.493l-0.33,0.238
				l-1.948-2.698l0.33-0.238c0.114,0.132,0.244,0.263,0.391,0.393c0.146,0.129,0.285,0.212,0.415,0.247
				c0.168,0.046,0.357,0.023,0.569-0.068c0.212-0.091,0.531-0.292,0.96-0.601l3.428-2.476c0.198-0.143,0.344-0.284,0.436-0.422
				c0.092-0.138,0.146-0.28,0.16-0.424c0.015-0.159-0.009-0.324-0.069-0.495c-0.062-0.171-0.139-0.328-0.232-0.471l0.329-0.238
				l1.646,2.279l-3.65,5.541l5.396-1.392c0.197-0.051,0.396-0.117,0.595-0.196c0.199-0.079,0.328-0.137,0.388-0.175l1.58,2.189
				l-0.329,0.238c-0.066-0.086-0.162-0.188-0.287-0.307c-0.124-0.119-0.22-0.202-0.287-0.249c-0.115-0.08-0.23-0.107-0.346-0.082
				c-0.115,0.026-0.226,0.077-0.329,0.151l-4.83,3.488c-0.11,0.08-0.189,0.166-0.237,0.258c-0.049,0.092-0.062,0.213-0.041,0.361
				c0.01,0.08,0.054,0.202,0.132,0.367c0.078,0.165,0.146,0.291,0.205,0.378L86.416,33.771z"/>
			<path i:knockout="Off" d="M91.344,39.504l-2.304,0.812l-2.692-6.308l0.373-0.159c0.053,0.104,0.129,0.239,0.228,0.407
				c0.1,0.168,0.173,0.273,0.221,0.316c0.103,0.091,0.205,0.141,0.311,0.148c0.104,0.008,0.223-0.017,0.354-0.073l5.464-2.333
				c0.118-0.05,0.214-0.115,0.288-0.193c0.074-0.078,0.113-0.191,0.118-0.34c0.005-0.116-0.009-0.263-0.043-0.439
				c-0.033-0.177-0.066-0.315-0.101-0.415l0.374-0.16l2.51,5.877l-1.825,0.779l-0.172-0.402c0.235-0.185,0.451-0.46,0.648-0.826
				c0.197-0.366,0.265-0.662,0.201-0.888c-0.033-0.117-0.079-0.254-0.138-0.411c-0.06-0.157-0.131-0.333-0.215-0.53l-0.511-1.196
				l-2.988,1.276l0.367,0.86c0.117,0.276,0.229,0.467,0.335,0.572s0.24,0.18,0.402,0.226c0.136,0.035,0.303,0.043,0.498,0.025
				c0.196-0.018,0.375-0.051,0.535-0.098l0.172,0.402l-2.975,1.27l-0.172-0.402c0.165-0.087,0.329-0.203,0.493-0.347
				c0.163-0.144,0.273-0.269,0.33-0.373c0.092-0.171,0.128-0.336,0.11-0.496s-0.076-0.356-0.175-0.589L91,34.639l-2.268,0.968
				c-0.227,0.097-0.399,0.189-0.517,0.277c-0.118,0.088-0.19,0.193-0.218,0.314c-0.028,0.121-0.018,0.267,0.031,0.435
				s0.137,0.401,0.263,0.696c0.05,0.118,0.116,0.272,0.198,0.465s0.158,0.352,0.229,0.478c0.071,0.129,0.157,0.258,0.257,0.386
				c0.099,0.128,0.193,0.209,0.283,0.242c0.241,0.091,0.573,0.152,0.998,0.184c0.424,0.031,0.729,0.037,0.914,0.017L91.344,39.504z"
				/>
			<path i:knockout="Off" d="M90.844,48.61l-0.457-2.174c0.649-0.638,1.208-1.208,1.674-1.71c0.465-0.502,0.941-1.041,1.427-1.617
				l-0.178-0.845L90.76,42.8c-0.133,0.028-0.244,0.073-0.336,0.136c-0.092,0.063-0.149,0.167-0.174,0.315
				c-0.012,0.073-0.012,0.197,0.002,0.372c0.013,0.175,0.03,0.321,0.051,0.439l-0.397,0.083l-0.714-3.395l0.397-0.083
				c0.026,0.088,0.067,0.216,0.122,0.383s0.104,0.281,0.149,0.342c0.073,0.102,0.162,0.168,0.268,0.199
				c0.106,0.031,0.233,0.031,0.381,0l5.849-1.229c0.133-0.028,0.246-0.072,0.341-0.131s0.154-0.164,0.179-0.314
				c0.014-0.101,0.02-0.229,0.017-0.386s-0.012-0.288-0.026-0.395l0.397-0.083l0.783,3.723c0.071,0.341,0.104,0.668,0.096,0.983
				c-0.007,0.314-0.063,0.609-0.168,0.884c-0.103,0.267-0.262,0.496-0.478,0.688c-0.216,0.191-0.496,0.324-0.843,0.396
				c-0.312,0.065-0.598,0.076-0.856,0.032c-0.26-0.045-0.496-0.142-0.71-0.291c-0.199-0.137-0.385-0.312-0.555-0.526
				c-0.17-0.213-0.327-0.456-0.471-0.727c-0.443,0.509-0.816,0.934-1.121,1.273s-0.674,0.755-1.108,1.247
				c-0.192,0.215-0.328,0.401-0.408,0.559c-0.08,0.158-0.14,0.311-0.181,0.458c-0.028,0.109-0.04,0.24-0.036,0.394
				c0.005,0.154,0.016,0.28,0.032,0.38L90.844,48.61z M96.225,44.35c0.487-0.103,0.845-0.325,1.071-0.666s0.286-0.769,0.178-1.282
				l-0.204-0.97l-3.455,0.727l0.157,0.748c0.11,0.524,0.369,0.927,0.777,1.206S95.649,44.471,96.225,44.35z"/>
		</g>
		<g i:knockout="Off">
			<path i:knockout="Off" fill="#1A1A1A" d="M44.43,73.244c-0.378-0.193-0.866-0.331-1.336-0.331c-0.46,0-1.078,0.185-1.078,0.737
				c0,1.031,2.192,0.967,2.192,2.754c0,1.575-1.234,2.146-2.644,2.146c-0.617,0-1.253-0.147-1.833-0.359l0.332-1.096
				c0.498,0.23,1.022,0.442,1.575,0.442c0.617,0,1.225-0.313,1.225-1.005c0-1.16-2.192-0.977-2.192-2.689
				c0-1.354,1.161-1.944,2.395-1.944c0.562,0,1.143,0.074,1.667,0.286L44.43,73.244z"/>
			<path i:knockout="Off" fill="#1A1A1A" d="M45.969,73.696h1.234l-1.014,4.744h-1.234L45.969,73.696z M46.42,71.65h1.234
				l-0.258,1.18h-1.234L46.42,71.65z"/>
			<path i:knockout="Off" fill="#1A1A1A" d="M48.981,71.531h1.235l-1.465,6.909h-1.235L48.981,71.531z"/>
			<path i:knockout="Off" fill="#1A1A1A" d="M50.492,73.696h1.262l0.479,3.482h0.018l1.871-3.482h1.308l-2.773,4.744h-1.363
				L50.492,73.696z"/>
			<path i:knockout="Off" fill="#1A1A1A" d="M56.48,76.45c0,0.876,0.47,1.198,1.317,1.198c0.507,0,0.995-0.129,1.455-0.341
				l-0.156,0.977c-0.479,0.147-1.004,0.267-1.511,0.267c-1.363,0-2.285-0.663-2.285-2.072c0-1.475,1.143-2.894,2.699-2.894
				c1.17,0,1.944,0.6,1.944,1.806c0,0.359-0.046,0.71-0.12,1.06H56.48z M58.737,75.602c0.019-0.11,0.027-0.212,0.027-0.322
				c0-0.507-0.267-0.792-0.783-0.792c-0.765,0-1.096,0.461-1.336,1.114H58.737z"/>
			<path i:knockout="Off" fill="#1A1A1A" d="M61.169,74.332c0.037-0.203,0.074-0.415,0.111-0.636h1.179l-0.166,0.894h0.019
				c0.222-0.517,0.829-1.005,1.4-1.005c0.156,0,0.322,0.01,0.47,0.047l-0.258,1.206c-0.138-0.046-0.313-0.073-0.47-0.073
				c-0.875,0-1.299,0.783-1.456,1.548l-0.441,2.128h-1.234L61.169,74.332z"/>
		</g>
	</g>
</svg>
