<?xml version="1.0" encoding="utf-8"?>
<!-- Generator: Adobe Illustrator 10.0.3, SVG Export Plug-In . SVG Version: 3.0.0 Build 77)  -->
<!DOCTYPE svg PUBLIC "-//W3C//DTD SVG 1.0//EN"    "http://www.w3.org/TR/2001/REC-SVG-20010904/DTD/svg10.dtd" [
	<!ENTITY ns_flows "http://ns.adobe.com/Flows/1.0/">
	<!ENTITY ns_extend "http://ns.adobe.com/Extensibility/1.0/">
	<!ENTITY ns_ai "http://ns.adobe.com/AdobeIllustrator/10.0/">
	<!ENTITY ns_graphs "http://ns.adobe.com/Graphs/1.0/">
	<!ENTITY ns_vars "http://ns.adobe.com/Variables/1.0/">
	<!ENTITY ns_imrep "http://ns.adobe.com/ImageReplacement/1.0/">
	<!ENTITY ns_sfw "http://ns.adobe.com/SaveForWeb/1.0/">
	<!ENTITY ns_custom "http://ns.adobe.com/GenericCustomNamespace/1.0/">
	<!ENTITY ns_adobe_xpath "http://ns.adobe.com/XPath/1.0/">
	<!ENTITY ns_svg "http://www.w3.org/2000/svg">
	<!ENTITY ns_xlink "http://www.w3.org/1999/xlink">
]>
<svg 
	 xmlns:x="&ns_extend;" xmlns:i="&ns_ai;" xmlns:graph="&ns_graphs;" i:viewOrigin="368.833 349.2988" i:rulerOrigin="0 0" i:pageBounds="0 595.2754 841.8896 0"
	 xmlns="&ns_svg;" xmlns:xlink="&ns_xlink;" xmlns:a="http://ns.adobe.com/AdobeSVGViewerExtensions/3.0/"
	 width="104.623" height="104.621" viewBox="0 0 104.623 104.621" overflow="visible" enable-background="new 0 0 104.623 104.621"
	 xml:space="preserve">
	<metadata>
		<variableSets  xmlns="&ns_vars;">
			<variableSet  varSetName="binding1" locked="none">
				<variables></variables>
				<v:sampleDataSets  xmlns="&ns_custom;" xmlns:v="&ns_vars;"></v:sampleDataSets>
			</variableSet>
		</variableSets>
		<sfw  xmlns="&ns_sfw;">
			<slices></slices>
			<sliceSourceBounds  y="244.678" x="368.833" width="104.623" height="104.621" bottomLeftOrigin="true"></sliceSourceBounds>
		</sfw>
	</metadata>
	<g id="レイヤー_1" i:layer="yes" i:dimmedPercent="50" i:rgbTrio="#4F008000FFFF">
		<linearGradient id="XMLID_1_" gradientUnits="userSpaceOnUse" x1="18.9468" y1="12.5488" x2="85.6762" y2="92.0738">
			<stop  offset="0" style="stop-color:#FFFFFF"/>
			<stop  offset="0.0164" style="stop-color:#FEFDF4"/>
			<stop  offset="0.0512" style="stop-color:#FDFAE7"/>
			<stop  offset="0.0843" style="stop-color:#FCF8E1"/>
			<stop  offset="0.1338" style="stop-color:#F7EDC5"/>
			<stop  offset="0.2608" style="stop-color:#EBD589"/>
			<stop  offset="0.3891" style="stop-color:#E2C05B"/>
			<stop  offset="0.5161" style="stop-color:#DBB039"/>
			<stop  offset="0.6415" style="stop-color:#D5A421"/>
			<stop  offset="0.765" style="stop-color:#D19B12"/>
			<stop  offset="0.8856" style="stop-color:#CF9708"/>
			<stop  offset="1" style="stop-color:#D09502"/>
			<a:midPointStop  offset="0" style="stop-color:#FFFFFF"/>
			<a:midPointStop  offset="0.3034" style="stop-color:#FFFFFF"/>
			<a:midPointStop  offset="0.0843" style="stop-color:#FCF8E1"/>
			<a:midPointStop  offset="0.3034" style="stop-color:#FCF8E1"/>
			<a:midPointStop  offset="1" style="stop-color:#D09502"/>
		</linearGradient>
		<path i:knockout="Off" fill="url(#XMLID_1_)" stroke="#CC9915" stroke-width="0.4122" d="M104.417,52.312
			c0-28.777-23.328-52.105-52.107-52.105c-28.775,0-52.104,23.328-52.104,52.105c0,28.775,23.328,52.104,52.104,52.104
			C81.089,104.415,104.417,81.087,104.417,52.312z"/>
		
			<linearGradient id="XMLID_2_" gradientUnits="userSpaceOnUse" x1="17.4272" y1="25.0059" x2="88.0627" y2="95.6413" gradientTransform="matrix(0.9995 -0.0324 0.0324 0.9995 -2.3621 -6.2736)">
			<stop  offset="0" style="stop-color:#EFDA5C"/>
			<stop  offset="0.038" style="stop-color:#EFDB5F"/>
			<stop  offset="0.0699" style="stop-color:#F1DD69"/>
			<stop  offset="0.0996" style="stop-color:#F3E27A"/>
			<stop  offset="0.128" style="stop-color:#F5E793"/>
			<stop  offset="0.1551" style="stop-color:#F8EEB4"/>
			<stop  offset="0.1798" style="stop-color:#FCF7DB"/>
			<stop  offset="0.224" style="stop-color:#F7EAA0"/>
			<stop  offset="0.2721" style="stop-color:#F1DE6C"/>
			<stop  offset="0.3195" style="stop-color:#EDD443"/>
			<stop  offset="0.3651" style="stop-color:#EACD26"/>
			<stop  offset="0.4086" style="stop-color:#E7C712"/>
			<stop  offset="0.449" style="stop-color:#E6C408"/>
			<stop  offset="0.4831" style="stop-color:#E6C400"/>
			<stop  offset="0.5266" style="stop-color:#DDB601"/>
			<stop  offset="0.5996" style="stop-color:#D2A502"/>
			<stop  offset="0.6629" style="stop-color:#D0A002"/>
			<stop  offset="0.8146" style="stop-color:#E6C400"/>
			<stop  offset="0.8488" style="stop-color:#EBCF2F"/>
			<stop  offset="0.886" style="stop-color:#EFDB5F"/>
			<stop  offset="0.921" style="stop-color:#F4E587"/>
			<stop  offset="0.9527" style="stop-color:#F7EBA5"/>
			<stop  offset="0.9801" style="stop-color:#F9F0B9"/>
			<stop  offset="1" style="stop-color:#F9F1BF"/>
			<a:midPointStop  offset="0" style="stop-color:#EFDA5C"/>
			<a:midPointStop  offset="0.7419" style="stop-color:#EFDA5C"/>
			<a:midPointStop  offset="0.1798" style="stop-color:#FCF7DB"/>
			<a:midPointStop  offset="0.3273" style="stop-color:#FCF7DB"/>
			<a:midPointStop  offset="0.4831" style="stop-color:#E6C400"/>
			<a:midPointStop  offset="0.3226" style="stop-color:#E6C400"/>
			<a:midPointStop  offset="0.6629" style="stop-color:#D0A002"/>
			<a:midPointStop  offset="0.5" style="stop-color:#D0A002"/>
			<a:midPointStop  offset="0.8146" style="stop-color:#E6C400"/>
			<a:midPointStop  offset="0.3611" style="stop-color:#E6C400"/>
			<a:midPointStop  offset="1" style="stop-color:#F9F1BF"/>
		</linearGradient>
		<path i:knockout="Off" fill="url(#XMLID_2_)" d="M2.364,53.929c0.893,27.539,24.023,49.219,51.564,48.328
			c27.539-0.893,49.221-24.025,48.33-51.562c-0.893-27.541-24.025-49.221-51.564-48.33C23.153,3.257,1.474,26.39,2.364,53.929z"/>
		<linearGradient id="XMLID_3_" gradientUnits="userSpaceOnUse" x1="74.8809" y1="79.2109" x2="29.7401" y2="25.4143">
			<stop  offset="0.0674" style="stop-color:#FCF8E1"/>
			<stop  offset="0.1027" style="stop-color:#F8EEC7"/>
			<stop  offset="0.1902" style="stop-color:#ECD791"/>
			<stop  offset="0.2827" style="stop-color:#E4C566"/>
			<stop  offset="0.3785" style="stop-color:#DDB645"/>
			<stop  offset="0.4787" style="stop-color:#D8AA2B"/>
			<stop  offset="0.5846" style="stop-color:#D4A01A"/>
			<stop  offset="0.6988" style="stop-color:#D19A0F"/>
			<stop  offset="0.8273" style="stop-color:#CF9607"/>
			<stop  offset="1" style="stop-color:#D09502"/>
			<a:midPointStop  offset="0.0674" style="stop-color:#FCF8E1"/>
			<a:midPointStop  offset="0.236" style="stop-color:#FCF8E1"/>
			<a:midPointStop  offset="1" style="stop-color:#D09502"/>
		</linearGradient>
		<path i:knockout="Off" fill="url(#XMLID_3_)" d="M17.046,52.313c0,19.443,15.818,35.262,35.264,35.262
			s35.266-15.818,35.266-35.262S71.755,17.048,52.31,17.048S17.046,32.87,17.046,52.313z"/>
		<path i:knockout="Off" fill="#FFFFFF" stroke="#CC9915" stroke-width="0.4122" d="M86.007,52.313
			c0-18.611-15.088-33.695-33.697-33.695S18.616,33.702,18.616,52.313c0,18.607,15.084,33.691,33.693,33.691
			S86.007,70.921,86.007,52.313z"/>
		<g>
			<path i:knockout="Off" fill-rule="evenodd" clip-rule="evenodd" fill="#C9002C" d="M60.995,40.7L45.706,66.991h13.209
				l15.432-25.588L60.995,40.7z"/>
			<linearGradient id="XMLID_4_" gradientUnits="userSpaceOnUse" x1="37.8506" y1="33.8276" x2="51.3053" y2="47.2823">
				<stop  offset="0.0056" style="stop-color:#FEE6EE"/>
				<stop  offset="0.0757" style="stop-color:#FBADC7"/>
				<stop  offset="0.1487" style="stop-color:#F87AA7"/>
				<stop  offset="0.2205" style="stop-color:#F64F8E"/>
				<stop  offset="0.2895" style="stop-color:#F5307C"/>
				<stop  offset="0.355" style="stop-color:#F41970"/>
				<stop  offset="0.4155" style="stop-color:#F30C68"/>
				<stop  offset="0.4663" style="stop-color:#F30166"/>
				<a:midPointStop  offset="0.0056" style="stop-color:#FEE6EE"/>
				<a:midPointStop  offset="0.3293" style="stop-color:#FEE6EE"/>
				<a:midPointStop  offset="0.4663" style="stop-color:#F30166"/>
			</linearGradient>
			<path i:knockout="Off" fill-rule="evenodd" clip-rule="evenodd" fill="url(#XMLID_4_)" d="M60.577,41.403l-3.818-3.812h-22.67
				l-3.814,3.812H60.577z"/>
			<linearGradient id="XMLID_5_" gradientUnits="userSpaceOnUse" x1="56.1836" y1="44.4795" x2="44.9686" y2="28.4628">
				<stop  offset="0.0169" style="stop-color:#FFFFFF"/>
				<stop  offset="0.0644" style="stop-color:#FDD8E8"/>
				<stop  offset="0.1641" style="stop-color:#FA8DBA"/>
				<stop  offset="0.2531" style="stop-color:#F75196"/>
				<stop  offset="0.3284" style="stop-color:#F5257C"/>
				<stop  offset="0.3868" style="stop-color:#F30B6C"/>
				<stop  offset="0.4213" style="stop-color:#F30166"/>
				<stop  offset="1" style="stop-color:#C9002C"/>
				<a:midPointStop  offset="0.0169" style="stop-color:#FFFFFF"/>
				<a:midPointStop  offset="0.4085" style="stop-color:#FFFFFF"/>
				<a:midPointStop  offset="0.4213" style="stop-color:#F30166"/>
				<a:midPointStop  offset="0.5" style="stop-color:#F30166"/>
				<a:midPointStop  offset="1" style="stop-color:#C9002C"/>
			</linearGradient>
			<path i:knockout="Off" fill-rule="evenodd" clip-rule="evenodd" fill="url(#XMLID_5_)" d="M60.577,41.403l4.928-8.84H39.112
				l-5.256,5.256h23.135L60.577,41.403z"/>
			<linearGradient id="XMLID_6_" gradientUnits="userSpaceOnUse" x1="60.0986" y1="39.6172" x2="72.9457" y2="36.1748">
				<stop  offset="0.0056" style="stop-color:#FFFFFF"/>
				<stop  offset="0.3327" style="stop-color:#DB5371"/>
				<stop  offset="0.5" style="stop-color:#C9002C"/>
				<a:midPointStop  offset="0.0056" style="stop-color:#FFFFFF"/>
				<a:midPointStop  offset="0.4886" style="stop-color:#FFFFFF"/>
				<a:midPointStop  offset="0.5" style="stop-color:#C9002C"/>
			</linearGradient>
			<path i:knockout="Off" fill-rule="evenodd" clip-rule="evenodd" fill="url(#XMLID_6_)" d="M60.577,41.403h13.77l-8.842-8.84
				L60.577,41.403z"/>
			<linearGradient id="XMLID_7_" gradientUnits="userSpaceOnUse" x1="50.5796" y1="61.1826" x2="28.9239" y2="43.0113">
				<stop  offset="0.0056" style="stop-color:#FFFFFF"/>
				<stop  offset="0.1134" style="stop-color:#FDCCE0"/>
				<stop  offset="0.2418" style="stop-color:#FA97C0"/>
				<stop  offset="0.3719" style="stop-color:#F869A5"/>
				<stop  offset="0.501" style="stop-color:#F6448E"/>
				<stop  offset="0.629" style="stop-color:#F5267D"/>
				<stop  offset="0.7555" style="stop-color:#F41270"/>
				<stop  offset="0.88" style="stop-color:#F30569"/>
				<stop  offset="1" style="stop-color:#F30166"/>
				<a:midPointStop  offset="0.0056" style="stop-color:#FFFFFF"/>
				<a:midPointStop  offset="0.3" style="stop-color:#FFFFFF"/>
				<a:midPointStop  offset="1" style="stop-color:#F30166"/>
			</linearGradient>
			<path i:knockout="Off" fill-rule="evenodd" clip-rule="evenodd" fill="url(#XMLID_7_)" d="M38.802,41.403h-8.527l15.432,25.588
				l3.922-6.758L38.802,41.403z"/>
			<linearGradient id="XMLID_8_" gradientUnits="userSpaceOnUse" x1="54.1016" y1="41.4033" x2="54.1016" y2="32.5175">
				<stop  offset="0" style="stop-color:#FFFFFF"/>
				<stop  offset="0.2798" style="stop-color:#FFFFFF"/>
				<stop  offset="0.3258" style="stop-color:#FFFFFF"/>
				<stop  offset="0.3929" style="stop-color:#FEFAF9"/>
				<stop  offset="0.4763" style="stop-color:#FAE9E7"/>
				<stop  offset="0.5685" style="stop-color:#F4CFCB"/>
				<stop  offset="0.667" style="stop-color:#ECABA8"/>
				<stop  offset="0.7706" style="stop-color:#E27C80"/>
				<stop  offset="0.8783" style="stop-color:#D64557"/>
				<stop  offset="0.9876" style="stop-color:#CB0D30"/>
				<stop  offset="1" style="stop-color:#C9002C"/>
				<a:midPointStop  offset="0" style="stop-color:#FFFFFF"/>
				<a:midPointStop  offset="0.87" style="stop-color:#FFFFFF"/>
				<a:midPointStop  offset="0.3258" style="stop-color:#FFFFFF"/>
				<a:midPointStop  offset="0.6612" style="stop-color:#FFFFFF"/>
				<a:midPointStop  offset="1" style="stop-color:#C9002C"/>
			</linearGradient>
			<path i:knockout="Off" fill-rule="evenodd" clip-rule="evenodd" fill="url(#XMLID_8_)"  a:adobe-blending-mode="multiply" d="
				M65.505,32.563H39.112l-5.256,5.256h23.135l3.586,3.584h13.77L65.505,32.563z"/>
		</g>
		<g i:knockout="Off">
			<path i:knockout="Off" fill="#FFFFFF" d="M40.561,99.083c-0.695-0.065-1.432-0.173-2.101-0.398
				c-2.854-0.962-4.354-3.057-3.351-6.036c1.017-3.018,3.431-4.088,6.423-3.079c0.581,0.195,1.312,0.568,1.871,1.038l-0.628,1.447
				c-0.542-0.604-1.118-0.896-1.749-1.109c-1.818-0.613-3.422,0.393-4.031,2.198c-0.604,1.793,0.052,3.518,1.933,4.152
				c0.694,0.233,1.566,0.358,2.055,0.284L40.561,99.083z"/>
			<path i:knockout="Off" fill="#FFFFFF" d="M48.483,100.066c-0.696,0.267-1.461,0.349-2.411,0.217
				c-2.244-0.312-3.37-1.787-3.06-4.017c0.273-1.967,1.541-3.444,3.652-3.151c2.521,0.351,2.993,2.179,2.663,4.554l-4.697-0.653
				c-0.073,1.106,0.606,1.833,1.701,1.985c0.858,0.119,1.641-0.095,2.352-0.373L48.483,100.066z M47.807,96.22
				c0.066-0.865-0.227-1.659-1.216-1.796c-0.99-0.138-1.587,0.479-1.792,1.378L47.807,96.22z"/>
			<path i:knockout="Off" fill="#FFFFFF" d="M51.091,93.686l1.585-0.014l0.014,1.559h0.026c0.074-0.641,0.797-1.727,1.863-1.735
				c0.174-0.002,0.36-0.004,0.547,0.048l0.017,1.799c-0.161-0.092-0.481-0.143-0.801-0.14c-1.452,0.013-1.436,1.825-1.427,2.811
				l0.022,2.519l-1.785,0.016L51.091,93.686z"/>
			<path i:knockout="Off" fill="#FFFFFF" d="M57.438,94.685l-1.306,0.193l-0.19-1.292l1.305-0.192l-0.201-1.358l1.683-0.827
				l0.284,1.924l1.568-0.232l0.191,1.292l-1.568,0.232l0.468,3.162c0.086,0.58,0.324,1.098,0.996,0.998
				c0.316-0.047,0.609-0.158,0.776-0.304l0.26,1.39c-0.354,0.159-0.754,0.272-1.281,0.351c-1.384,0.205-2.275-0.539-2.474-1.883
				L57.438,94.685z"/>
			<path i:knockout="Off" fill="#FFFFFF" d="M61.038,89.716l1.728-0.45l0.43,1.649l-1.727,0.451L61.038,89.716z M61.784,92.578
				l1.728-0.451l1.732,6.639l-1.727,0.451L61.784,92.578z"/>
			<path i:knockout="Off" fill="#FFFFFF" d="M66.244,92.634l-1.234,0.465l-0.46-1.223l1.234-0.464l-0.338-0.898
				c-0.484-1.284-0.099-2.454,1.223-2.951c0.424-0.16,0.921-0.276,1.273-0.323l0.384,1.436c-0.183-0.031-0.445-0.088-0.808,0.048
				c-0.561,0.211-0.552,0.764-0.364,1.262l0.3,0.798l1.459-0.549l0.46,1.222l-1.458,0.55l1.957,5.199l-1.671,0.629L66.244,92.634z"
				/>
			<path i:knockout="Off" fill="#FFFFFF" d="M68.871,86.934l1.588-0.814l0.778,1.518l-1.589,0.814L68.871,86.934z M70.22,89.565
				l1.589-0.814l3.13,6.105l-1.588,0.814L70.22,89.565z"/>
			<path i:knockout="Off" fill="#FFFFFF" d="M81.509,90.212c-0.334,0.666-0.843,1.243-1.633,1.787
				c-1.865,1.284-3.692,0.957-4.969-0.897c-1.126-1.635-1.188-3.582,0.567-4.79c2.096-1.443,3.679-0.414,5.038,1.562l-3.906,2.689
				c0.692,0.865,1.685,0.942,2.595,0.315c0.714-0.491,1.146-1.177,1.484-1.862L81.509,90.212z M78.413,87.83
				c-0.535-0.683-1.287-1.07-2.11-0.504s-0.847,1.424-0.392,2.227L78.413,87.83z"/>
			<path i:knockout="Off" fill="#FFFFFF" d="M86.785,85.017l-0.02,0.019c0.095,0.848-0.235,1.555-0.829,2.147
				c-1.488,1.488-3.26,0.81-4.588-0.519c-1.337-1.338-1.978-3.071-0.488-4.56c0.631-0.631,1.29-0.857,2.129-0.772l0.019-0.019
				l-2.778-2.779l1.263-1.263l7.063,7.067l-1.225,1.224L86.785,85.017z M85.306,85.854c0.839-0.838,0.227-1.997-0.461-2.685
				c-0.678-0.679-1.865-1.226-2.676-0.415c-0.819,0.819-0.15,1.94,0.499,2.591C83.337,86.015,84.477,86.684,85.306,85.854z"/>
		</g>
		<g>
			<path i:knockout="Off" fill="#FFFFFF" d="M20.798,81.929l-3.32,2.979l-1.123-1.254l6.922-6.211l1.564,1.742
				c1.377,1.504,1.889,3.045,0.57,4.234c-0.805,0.717-2.385,0.834-3.529-0.24C21.483,82.802,20.798,81.929,20.798,81.929z
				 M21.146,81.638l0.213,0.215c1.113,1.055,2.182,0.896,2.871,0.275c0.971-0.873,0.551-1.951,0.014-2.547
				c-0.309-0.346-0.318-0.363-0.367-0.363c-0.047-0.004-0.049,0.018-0.412,0.344L21.146,81.638z"/>
			<path i:knockout="Off" fill="#FFFFFF" d="M20.751,81.909c-0.256,1.23-0.588,3.055-1.133,5.379l1.301,1.451
				c0.584-2.549,1.254-5.52,1.254-5.52l-0.662-0.977L20.751,81.909z"/>
		</g>
		<g>
			<path i:knockout="Off" fill="#FFFFFF" d="M27.938,93.739l-1.58-1.135l3.465-8.959l1.582,1.133L27.938,93.739z"/>
			<path i:knockout="Off" fill="#FFFFFF" d="M22.95,90.161l-0.957-0.68l7.83-5.836l0.881,0.631L22.95,90.161z"/>
			<path i:knockout="Off" fill="#FFFFFF" d="M24.614,88.251l2.836,2.037l0.588-0.82l-2.834-2.031L24.614,88.251z"/>
		</g>
		<g i:knockout="Off">
			<path i:knockout="Off" fill="#1A1A1A" d="M40.261,98.436c-0.694-0.069-1.431-0.182-2.098-0.412
				c-2.847-0.979-4.334-3.083-3.312-6.056c1.036-3.011,3.456-4.065,6.441-3.038c0.58,0.199,1.309,0.577,1.865,1.05l-0.638,1.443
				c-0.538-0.607-1.112-0.904-1.741-1.121c-1.814-0.624-3.424,0.372-4.044,2.173c-0.615,1.789,0.029,3.518,1.906,4.164
				c0.692,0.238,1.563,0.368,2.053,0.298L40.261,98.436z"/>
			<path i:knockout="Off" fill="#1A1A1A" d="M48.068,99.461c-0.698,0.261-1.463,0.336-2.412,0.195
				c-2.24-0.332-3.354-1.816-3.024-4.043c0.291-1.964,1.572-3.431,3.68-3.118c2.517,0.373,2.973,2.204,2.622,4.576l-4.691-0.694
				c-0.083,1.105,0.589,1.838,1.683,2c0.856,0.126,1.641-0.081,2.355-0.352L48.068,99.461z M47.427,95.609
				c0.074-0.864-0.212-1.661-1.2-1.808c-0.988-0.146-1.59,0.465-1.804,1.362L47.427,95.609z"/>
			<path i:knockout="Off" fill="#1A1A1A" d="M50.641,93.102l1.585,0.004l-0.004,1.559h0.027c0.081-0.639,0.816-1.717,1.882-1.714
				c0.174,0,0.359,0.001,0.546,0.055l-0.004,1.798c-0.159-0.094-0.479-0.147-0.799-0.148c-1.452-0.003-1.456,1.809-1.458,2.794
				l-0.006,2.518l-1.785-0.004L50.641,93.102z"/>
			<path i:knockout="Off" fill="#1A1A1A" d="M57.017,94.167l-1.307,0.18l-0.178-1.293l1.307-0.18l-0.188-1.359l1.69-0.811
				l0.266,1.927l1.57-0.216l0.178,1.293l-1.57,0.216l0.436,3.168c0.079,0.58,0.312,1.1,0.985,1.007
				c0.316-0.043,0.611-0.151,0.779-0.295l0.245,1.392c-0.354,0.156-0.757,0.265-1.284,0.338c-1.386,0.19-2.27-0.562-2.454-1.908
				L57.017,94.167z"/>
			<path i:knockout="Off" fill="#1A1A1A" d="M60.583,89.255l1.732-0.43l0.41,1.655l-1.732,0.429L60.583,89.255z M61.294,92.125
				l1.732-0.429l1.649,6.658l-1.732,0.43L61.294,92.125z"/>
			<path i:knockout="Off" fill="#1A1A1A" d="M65.662,92.267l-1.241,0.447l-0.441-1.229l1.24-0.446l-0.324-0.903
				c-0.465-1.29-0.062-2.454,1.266-2.933c0.427-0.153,0.926-0.262,1.278-0.305l0.362,1.441c-0.182-0.034-0.444-0.095-0.808,0.036
				c-0.564,0.203-0.563,0.755-0.383,1.256l0.288,0.803l1.467-0.528l0.442,1.229l-1.467,0.527l1.881,5.227l-1.68,0.604L65.662,92.267
				z"/>
			<path i:knockout="Off" fill="#1A1A1A" d="M68.295,86.642l1.602-0.788l0.753,1.53l-1.603,0.788L68.295,86.642z M69.6,89.295
				l1.603-0.787l3.026,6.156l-1.602,0.787L69.6,89.295z"/>
			<path i:knockout="Off" fill="#1A1A1A" d="M80.789,90.195c-0.346,0.659-0.865,1.227-1.666,1.755
				c-1.889,1.249-3.709,0.888-4.95-0.991c-1.094-1.655-1.12-3.603,0.658-4.777c2.123-1.403,3.685-0.344,5.007,1.656l-3.956,2.614
				c0.677,0.879,1.666,0.975,2.589,0.365c0.722-0.478,1.168-1.155,1.518-1.834L80.789,90.195z M77.74,87.756
				c-0.522-0.693-1.267-1.095-2.101-0.544c-0.833,0.551-0.874,1.407-0.434,2.219L77.74,87.756z"/>
			<path i:knockout="Off" fill="#1A1A1A" d="M86.088,85.176l-0.02,0.019c0.076,0.85-0.269,1.549-0.874,2.13
				c-1.521,1.456-3.276,0.74-4.575-0.616c-1.309-1.366-1.912-3.112-0.393-4.568c0.645-0.617,1.309-0.829,2.145-0.727l0.02-0.019
				l-2.719-2.837l1.289-1.235l6.912,7.214l-1.251,1.198L86.088,85.176z M84.592,85.982c0.855-0.82,0.269-1.991-0.404-2.693
				c-0.664-0.692-1.839-1.264-2.666-0.472c-0.836,0.802-0.191,1.937,0.444,2.601C82.62,86.101,83.745,86.794,84.592,85.982z"/>
		</g>
		<g>
			<path i:knockout="Off" fill="#1A1A1A" d="M20.579,81.362l-3.371,2.92l-1.102-1.273l7.031-6.09l1.533,1.768
				c1.35,1.527,1.832,3.08,0.496,4.248c-0.82,0.703-2.4,0.789-3.525-0.303C21.249,82.247,20.579,81.362,20.579,81.362z
				 M20.933,81.079l0.207,0.219c1.096,1.074,2.166,0.932,2.867,0.322c0.986-0.855,0.584-1.939,0.059-2.543
				c-0.303-0.35-0.312-0.367-0.361-0.373c-0.049-0.004-0.047,0.018-0.418,0.338L20.933,81.079z"/>
			<path i:knockout="Off" fill="#1A1A1A" d="M20.53,81.345c-0.273,1.223-0.639,3.045-1.225,5.357l1.275,1.471
				c0.629-2.535,1.35-5.494,1.35-5.494l-0.645-0.988L20.53,81.345z"/>
		</g>
		<g>
			<path i:knockout="Off" fill="#1A1A1A" d="M27.505,93.3l-1.559-1.158l3.619-8.9l1.562,1.16L27.505,93.3z"/>
			<path i:knockout="Off" fill="#1A1A1A" d="M22.579,89.634l-0.943-0.697l7.93-5.695l0.871,0.646L22.579,89.634z"/>
			<path i:knockout="Off" fill="#1A1A1A" d="M24.278,87.757l2.801,2.082l0.604-0.807l-2.801-2.082L24.278,87.757z"/>
		</g>
		<g i:knockout="Off">
			<path i:knockout="Off" fill="#1A1A1A" d="M47.541,73.438c-0.498-0.323-1.115-0.461-1.788-0.461c-1.566,0-2.552,1.226-2.552,2.745
				c0,1.041,0.719,1.879,1.815,1.879c0.295,0,0.488,0,0.636-0.064l0.359-1.704h-1.364l0.212-1.013h2.607l-0.737,3.51
				c-0.377,0.156-1.096,0.285-1.723,0.285c-1.889,0-3.151-0.866-3.151-2.855c0-2.35,1.539-3.796,3.86-3.796
				c0.718,0,1.474,0.102,2.146,0.359L47.541,73.438z"/>
			<path i:knockout="Off" fill="#1A1A1A" d="M53.28,75.731c0,1.668-1.152,2.884-2.829,2.884c-1.345,0-2.156-0.829-2.156-2.165
				c0-1.584,1.216-2.801,2.81-2.801C52.387,73.649,53.28,74.424,53.28,75.731z M51.99,75.741c0-0.617-0.212-1.133-0.939-1.133
				c-0.977,0-1.465,1.077-1.465,1.935c0,0.626,0.258,1.114,0.967,1.114C51.511,77.657,51.99,76.552,51.99,75.741z"/>
			<path i:knockout="Off" fill="#1A1A1A" d="M55.205,71.596h1.235l-1.465,6.909H53.74L55.205,71.596z"/>
			<path i:knockout="Off" fill="#1A1A1A" d="M62.17,71.596l-1.28,5.859c-0.074,0.405-0.147,0.811-0.175,1.05h-1.151l0.119-0.7
				h-0.019c-0.368,0.516-0.829,0.811-1.548,0.811c-1.123,0-1.63-0.939-1.63-1.972c0-1.418,0.773-2.994,2.386-2.994
				c0.608,0,1.078,0.23,1.465,0.673l0.599-2.727H62.17z M57.775,76.533c0,0.479,0.147,1.124,0.756,1.124
				c0.902,0,1.438-1.05,1.438-1.926c0-0.553-0.268-1.123-0.894-1.123C58.19,74.608,57.775,75.824,57.775,76.533z"/>
		</g>
		<g i:knockout="Off">
			<path i:knockout="Off" fill="#FFFFFF" d="M96.079,54.563l-0.004,0.056c-0.06,0.973,0.313,1.826,1.476,1.898
				c0.827,0.052,1.615-0.337,1.671-1.242c0.019-0.303-0.092-0.87-0.483-0.895c-0.223-0.014-0.361,0.225-0.652,0.206
				c-0.335-0.021-0.526-0.369-0.508-0.671c0.024-0.392,0.4-0.671,0.781-0.647c0.994,0.062,1.317,1.372,1.266,2.2
				c-0.073,1.173-0.795,2.318-2.103,2.236c-1.163-0.072-1.728-1.095-1.694-2.17l-0.022-0.001c-0.099,1.229-0.853,2.337-2.193,2.254
				c-1.465-0.091-2.258-1.599-2.171-2.996c0.048-0.761,0.568-2.097,1.574-2.035c0.402,0.025,0.685,0.357,0.66,0.749
				c-0.022,0.368-0.264,0.634-0.633,0.611c-0.335-0.021-0.41-0.25-0.545-0.259c-0.436-0.026-0.629,0.735-0.645,0.992
				c-0.062,1.007,0.785,1.632,1.713,1.689c1.318,0.081,1.995-0.505,2.077-1.824l0.011-0.179L96.079,54.563z"/>
		</g>
		<g i:knockout="Off">
			<path i:knockout="Off" d="M95.814,53.952l-0.002,0.057c-0.047,0.973,0.339,1.821,1.502,1.877c0.828,0.039,1.609-0.36,1.653-1.267
				c0.015-0.303-0.104-0.868-0.496-0.888c-0.224-0.011-0.358,0.229-0.649,0.216c-0.336-0.016-0.532-0.361-0.518-0.664
				c0.019-0.391,0.391-0.676,0.771-0.658c0.995,0.048,1.337,1.354,1.297,2.182c-0.056,1.175-0.761,2.329-2.07,2.267
				c-1.163-0.056-1.743-1.069-1.725-2.146l-0.022-0.001c-0.082,1.229-0.819,2.35-2.161,2.285c-1.466-0.07-2.28-1.566-2.214-2.965
				c0.037-0.761,0.538-2.105,1.545-2.057c0.403,0.019,0.69,0.347,0.671,0.738c-0.018,0.369-0.254,0.639-0.624,0.62
				c-0.335-0.016-0.414-0.243-0.548-0.25c-0.437-0.021-0.619,0.744-0.631,1.001c-0.049,1.008,0.808,1.62,1.736,1.664
				c1.32,0.063,1.988-0.532,2.051-1.853l0.009-0.179L95.814,53.952z"/>
		</g>
		<g i:knockout="Off">
			<path i:knockout="Off" fill="#FFFFFF" d="M16.006,41.412l-0.419,2.182c-0.846,0.337-1.581,0.647-2.204,0.93
				c-0.624,0.283-1.271,0.596-1.941,0.939l-0.163,0.848l2.559,0.492c0.133,0.025,0.253,0.027,0.362,0.004
				c0.109-0.022,0.203-0.097,0.282-0.223c0.04-0.063,0.087-0.177,0.143-0.344c0.056-0.167,0.096-0.308,0.123-0.425l0.399,0.077
				l-0.654,3.407l-0.399-0.077c0.01-0.092,0.021-0.225,0.036-0.401c0.014-0.175,0.012-0.299-0.006-0.373
				c-0.027-0.123-0.084-0.218-0.17-0.288c-0.085-0.069-0.203-0.118-0.352-0.146l-5.869-1.127c-0.133-0.025-0.255-0.029-0.365-0.011
				s-0.206,0.091-0.286,0.221c-0.052,0.087-0.107,0.204-0.165,0.349c-0.058,0.146-0.101,0.27-0.128,0.374L6.39,47.743l0.717-3.736
				c0.066-0.342,0.163-0.657,0.291-0.943c0.128-0.287,0.294-0.537,0.497-0.751c0.198-0.206,0.434-0.356,0.707-0.45
				c0.273-0.093,0.583-0.107,0.93-0.04c0.313,0.06,0.581,0.161,0.803,0.302c0.222,0.141,0.403,0.322,0.542,0.542
				c0.131,0.203,0.233,0.436,0.308,0.699s0.125,0.547,0.154,0.853c0.605-0.298,1.114-0.545,1.526-0.741
				c0.412-0.196,0.913-0.436,1.504-0.722c0.261-0.124,0.458-0.243,0.593-0.357c0.135-0.114,0.249-0.231,0.343-0.352
				c0.069-0.09,0.13-0.206,0.186-0.35c0.056-0.144,0.094-0.264,0.117-0.363L16.006,41.412z M9.397,43.261
				c-0.489-0.094-0.905-0.027-1.246,0.2c-0.341,0.228-0.561,0.599-0.66,1.114l-0.187,0.973l3.468,0.666l0.144-0.75
				c0.102-0.526,0.018-0.998-0.251-1.413S9.974,43.372,9.397,43.261z"/>
			<path i:knockout="Off" fill="#FFFFFF" d="M11.866,31.262c-0.038,0.102-0.078,0.258-0.12,0.469
				c-0.042,0.21-0.049,0.393-0.021,0.548c0.031,0.157,0.166,0.312,0.404,0.467c0.238,0.155,0.544,0.31,0.917,0.465l3.315,1.385
				c0.423,0.177,0.753,0.417,0.992,0.722c0.238,0.305,0.398,0.642,0.479,1.011c0.076,0.363,0.091,0.717,0.045,1.064
				c-0.046,0.348-0.129,0.664-0.248,0.949c-0.191,0.457-0.421,0.838-0.69,1.145c-0.269,0.306-0.556,0.538-0.861,0.695
				c-0.304,0.154-0.613,0.236-0.927,0.248c-0.313,0.011-0.614-0.043-0.9-0.163l-4.508-1.883c-0.125-0.052-0.239-0.075-0.34-0.069
				s-0.215,0.058-0.339,0.154c-0.087,0.07-0.176,0.169-0.266,0.297c-0.089,0.128-0.157,0.236-0.202,0.323l-0.375-0.157l1.319-3.157
				l0.375,0.157c-0.038,0.101-0.074,0.232-0.108,0.395c-0.034,0.162-0.054,0.284-0.058,0.366c-0.007,0.138,0.031,0.249,0.114,0.332
				c0.083,0.083,0.184,0.148,0.302,0.198l4.209,1.758c0.204,0.085,0.428,0.152,0.67,0.201c0.243,0.048,0.488,0.047,0.737-0.005
				c0.255-0.058,0.496-0.18,0.722-0.368s0.426-0.492,0.602-0.912c0.165-0.394,0.24-0.751,0.227-1.071s-0.09-0.599-0.23-0.838
				c-0.132-0.228-0.291-0.416-0.477-0.565s-0.386-0.269-0.601-0.358l-3.125-1.306c-0.397-0.166-0.734-0.273-1.01-0.321
				c-0.276-0.048-0.477-0.034-0.602,0.043c-0.142,0.087-0.283,0.229-0.422,0.423c-0.14,0.194-0.238,0.347-0.292,0.458l-0.375-0.157
				l1.295-3.1L11.866,31.262z"/>
			<path i:knockout="Off" fill="#FFFFFF" d="M19.022,27.714c0.268-0.11,0.556-0.158,0.863-0.145
				c0.308,0.014,0.618,0.124,0.931,0.332c0.32,0.212,0.551,0.466,0.695,0.761c0.144,0.295,0.217,0.604,0.221,0.928
				c0.005,0.315-0.044,0.635-0.147,0.959c-0.104,0.324-0.252,0.632-0.445,0.922l-2.16,3.255l-0.338-0.225
				c0.045-0.082,0.106-0.205,0.184-0.367c0.078-0.163,0.124-0.287,0.138-0.371c0.021-0.13,0.008-0.242-0.041-0.334
				c-0.048-0.092-0.132-0.179-0.251-0.258l-4.951-3.284c-0.11-0.073-0.22-0.118-0.329-0.137c-0.109-0.018-0.226,0.011-0.352,0.088
				c-0.114,0.066-0.224,0.15-0.33,0.254c-0.106,0.104-0.189,0.194-0.25,0.271l-0.338-0.225l2.108-3.178
				c0.163-0.246,0.343-0.465,0.541-0.658c0.197-0.193,0.425-0.35,0.683-0.473c0.24-0.116,0.498-0.171,0.773-0.165
				s0.552,0.101,0.83,0.285c0.243,0.161,0.429,0.348,0.561,0.56s0.212,0.443,0.243,0.691c0.031,0.234,0.027,0.477-0.012,0.728
				s-0.107,0.504-0.207,0.759l0.043,0.028c0.153-0.182,0.349-0.369,0.586-0.563C18.51,27.962,18.76,27.815,19.022,27.714z
				 M17.211,28.2c-0.06-0.211-0.157-0.395-0.291-0.551s-0.314-0.31-0.541-0.459c-0.378-0.251-0.744-0.345-1.095-0.281
				c-0.352,0.063-0.675,0.318-0.971,0.763c-0.068,0.104-0.152,0.235-0.251,0.395s-0.182,0.294-0.25,0.402l2.643,1.753l0.408-0.615
				c0.175-0.264,0.292-0.513,0.349-0.747S17.27,28.407,17.211,28.2z M19.835,28.975c-0.404-0.269-0.827-0.353-1.269-0.252
				c-0.441,0.1-0.83,0.404-1.166,0.911c-0.137,0.207-0.25,0.383-0.34,0.528c-0.089,0.146-0.156,0.255-0.2,0.328l2.409,1.598
				c0.202,0.134,0.409,0.153,0.621,0.057c0.212-0.097,0.416-0.292,0.611-0.586c0.319-0.481,0.423-0.941,0.313-1.382
				C20.705,29.735,20.378,29.335,19.835,28.975z"/>
			<path i:knockout="Off" fill="#FFFFFF" d="M22.085,18.426c-0.043,0.05-0.096,0.144-0.16,0.281s-0.101,0.244-0.11,0.321
				c-0.037,0.173-0.056,0.297-0.057,0.371c-0.001,0.074,0.022,0.241,0.069,0.5c0.1,0.514,0.219,1.014,0.359,1.502
				c0.141,0.488,0.322,1.104,0.545,1.848c0.081,0.275,0.159,0.482,0.237,0.621c0.077,0.138,0.22,0.307,0.427,0.505l1.14,1.092
				c0.101,0.097,0.208,0.161,0.321,0.191c0.113,0.031,0.239,0.019,0.377-0.036c0.079-0.037,0.207-0.116,0.383-0.236
				c0.177-0.12,0.311-0.225,0.402-0.314l0.293,0.281l-2.669,2.788l-0.293-0.281c0.07-0.084,0.172-0.212,0.308-0.384
				s0.22-0.301,0.253-0.387c0.055-0.141,0.064-0.266,0.027-0.374s-0.108-0.213-0.215-0.315l-1.451-1.39
				c-0.044-0.043-0.153-0.094-0.324-0.154c-0.172-0.059-0.367-0.121-0.585-0.185c-0.486-0.143-1.017-0.294-1.591-0.452
				c-0.574-0.158-1.069-0.291-1.483-0.397c-0.249-0.061-0.448-0.094-0.597-0.101c-0.15-0.006-0.3,0.007-0.45,0.041
				c-0.106,0.027-0.216,0.077-0.328,0.149c-0.112,0.072-0.208,0.143-0.286,0.214l-0.293-0.281l2.438-2.545l0.293,0.281
				c-0.268,0.291-0.441,0.512-0.52,0.662c-0.079,0.15-0.087,0.254-0.025,0.314c0.017,0.016,0.055,0.036,0.113,0.06
				c0.059,0.024,0.134,0.051,0.228,0.082c0.107,0.033,0.232,0.07,0.374,0.11s0.277,0.079,0.406,0.118
				c0.375,0.107,0.75,0.212,1.128,0.312c0.378,0.101,0.871,0.232,1.479,0.393c-0.288-1.12-0.519-1.985-0.694-2.597
				c-0.175-0.611-0.302-0.955-0.379-1.029c-0.064-0.061-0.138-0.086-0.222-0.076c-0.084,0.011-0.176,0.044-0.273,0.101
				c-0.1,0.06-0.199,0.134-0.297,0.223c-0.098,0.088-0.19,0.169-0.276,0.242l-0.293-0.281l1.98-2.068L22.085,18.426z"/>
		</g>
		<g i:knockout="Off">
			<path i:knockout="Off" fill="#FFFFFF" d="M32.846,13.067c0.22,0.369,0.343,0.739,0.368,1.11s-0.036,0.727-0.182,1.066
				c-0.143,0.337-0.34,0.641-0.592,0.909c-0.252,0.268-0.548,0.504-0.889,0.707l-0.796,0.476l1.286,2.152
				c0.07,0.117,0.15,0.208,0.242,0.273c0.091,0.066,0.211,0.086,0.359,0.061c0.074-0.013,0.193-0.054,0.357-0.125
				s0.311-0.143,0.439-0.215l0.208,0.349l-3.031,1.812l-0.208-0.349c0.075-0.054,0.183-0.134,0.323-0.24
				c0.14-0.106,0.231-0.19,0.275-0.252c0.073-0.102,0.106-0.208,0.101-0.318c-0.005-0.11-0.046-0.23-0.124-0.36l-3.06-5.119
				c-0.069-0.117-0.149-0.212-0.238-0.286c-0.089-0.073-0.208-0.097-0.359-0.07c-0.151,0.032-0.295,0.076-0.43,0.132
				c-0.135,0.056-0.25,0.107-0.343,0.154l-0.208-0.349l3.236-1.935c0.66-0.394,1.29-0.555,1.891-0.483
				C32.072,12.239,32.53,12.539,32.846,13.067z M32.048,15.174c0.019-0.227-0.004-0.437-0.069-0.629s-0.138-0.356-0.219-0.492
				c-0.113-0.188-0.25-0.367-0.412-0.535c-0.162-0.168-0.342-0.292-0.539-0.372c-0.21-0.085-0.437-0.114-0.679-0.086
				c-0.243,0.028-0.506,0.127-0.791,0.297l-0.708,0.424l1.859,3.111l0.513-0.306c0.362-0.216,0.623-0.447,0.783-0.693
				S32.034,15.408,32.048,15.174z"/>
			<path i:knockout="Off" fill="#FFFFFF" d="M43.312,15.6l-2.074,0.797c-0.733-0.541-1.384-1.001-1.954-1.381
				s-1.177-0.764-1.822-1.152l-0.807,0.31l0.935,2.433c0.048,0.126,0.111,0.229,0.187,0.31c0.077,0.08,0.189,0.121,0.338,0.121
				c0.074,0,0.197-0.02,0.367-0.061c0.17-0.041,0.312-0.081,0.425-0.12l0.146,0.379l-3.238,1.244L35.669,18.1
				c0.083-0.041,0.203-0.101,0.359-0.182c0.156-0.081,0.261-0.148,0.314-0.202c0.089-0.088,0.141-0.187,0.154-0.296
				c0.013-0.109-0.007-0.234-0.061-0.376l-2.143-5.578c-0.049-0.127-0.11-0.232-0.183-0.317c-0.074-0.083-0.187-0.125-0.338-0.125
				c-0.102,0.002-0.23,0.017-0.384,0.044s-0.282,0.057-0.385,0.088l-0.146-0.379l3.551-1.364c0.325-0.125,0.644-0.208,0.955-0.251
				c0.312-0.042,0.611-0.034,0.9,0.026c0.28,0.059,0.532,0.18,0.755,0.362c0.223,0.182,0.398,0.438,0.525,0.769
				c0.114,0.298,0.17,0.578,0.167,0.841c-0.002,0.263-0.061,0.512-0.174,0.747c-0.104,0.218-0.247,0.429-0.431,0.63
				c-0.184,0.202-0.398,0.396-0.643,0.581c0.573,0.356,1.051,0.657,1.435,0.904c0.383,0.247,0.853,0.545,1.407,0.896
				c0.243,0.156,0.448,0.26,0.616,0.314c0.168,0.054,0.329,0.089,0.48,0.106c0.112,0.011,0.244,0.002,0.395-0.027
				c0.151-0.029,0.274-0.06,0.37-0.092L43.312,15.6z M38.25,10.964c-0.179-0.465-0.455-0.783-0.828-0.952s-0.805-0.16-1.294,0.028
				l-0.925,0.355l1.266,3.296l0.713-0.273c0.5-0.192,0.856-0.512,1.067-0.96C38.461,12.011,38.461,11.513,38.25,10.964z"/>
			<path i:knockout="Off" fill="#FFFFFF" d="M48.354,7.216c0.42,0.317,0.774,0.725,1.063,1.223c0.288,0.498,0.485,1.069,0.589,1.712
				c0.105,0.647,0.097,1.252-0.023,1.814s-0.334,1.059-0.641,1.49c-0.296,0.425-0.663,0.776-1.101,1.051
				c-0.438,0.275-0.922,0.456-1.454,0.542c-0.566,0.092-1.106,0.07-1.62-0.065c-0.514-0.135-0.974-0.364-1.379-0.688
				c-0.404-0.316-0.748-0.723-1.031-1.222c-0.283-0.499-0.473-1.051-0.571-1.656c-0.107-0.663-0.1-1.27,0.022-1.823
				s0.334-1.048,0.636-1.486c0.298-0.433,0.669-0.788,1.113-1.064c0.443-0.276,0.925-0.457,1.445-0.541
				c0.539-0.087,1.064-0.068,1.574,0.058C47.488,6.686,47.947,6.905,48.354,7.216z M48.437,13.137
				c0.157-0.384,0.249-0.804,0.275-1.26s-0.005-0.957-0.093-1.501c-0.091-0.56-0.229-1.064-0.413-1.515
				c-0.185-0.45-0.409-0.823-0.673-1.118c-0.263-0.292-0.567-0.503-0.914-0.634s-0.725-0.163-1.133-0.097
				c-0.458,0.074-0.831,0.243-1.118,0.506c-0.287,0.263-0.503,0.587-0.648,0.972c-0.137,0.369-0.215,0.786-0.235,1.254
				c-0.02,0.467,0.01,0.95,0.091,1.449c0.089,0.552,0.22,1.042,0.391,1.471c0.171,0.429,0.392,0.798,0.662,1.108
				c0.261,0.304,0.563,0.525,0.908,0.664c0.344,0.139,0.733,0.173,1.169,0.103c0.409-0.066,0.762-0.222,1.06-0.467
				C48.062,13.827,48.286,13.516,48.437,13.137z"/>
			<path i:knockout="Off" fill="#FFFFFF" d="M59.177,11.312c-0.095,0.007-0.223,0.02-0.384,0.037
				c-0.16,0.018-0.291,0.047-0.392,0.089c-0.121,0.052-0.209,0.131-0.264,0.235s-0.085,0.229-0.092,0.372l-0.031,0.641
				c-0.022,0.466-0.035,0.781-0.037,0.944s-0.002,0.298,0.001,0.403c-0.526,0.208-1.047,0.362-1.563,0.461
				c-0.517,0.099-1.021,0.137-1.512,0.113c-0.525-0.025-1.027-0.149-1.505-0.371c-0.478-0.222-0.89-0.523-1.235-0.906
				c-0.35-0.386-0.62-0.848-0.811-1.387c-0.191-0.538-0.271-1.133-0.239-1.785c0.031-0.629,0.163-1.207,0.396-1.734
				s0.548-0.979,0.946-1.357c0.386-0.37,0.839-0.65,1.357-0.841c0.519-0.191,1.067-0.272,1.647-0.244
				c0.464,0.023,0.864,0.1,1.203,0.231c0.338,0.131,0.635,0.283,0.89,0.454l0.257-0.383l0.469,0.023l-0.094,2.889L57.7,9.175
				c-0.065-0.324-0.15-0.645-0.255-0.961c-0.104-0.316-0.245-0.602-0.423-0.857c-0.177-0.255-0.397-0.463-0.663-0.623
				c-0.265-0.16-0.586-0.249-0.965-0.268c-0.413-0.02-0.786,0.047-1.118,0.2c-0.333,0.154-0.627,0.392-0.882,0.714
				c-0.251,0.312-0.453,0.705-0.604,1.181c-0.151,0.476-0.241,1.011-0.27,1.605c-0.025,0.525,0.013,1.022,0.117,1.493
				c0.104,0.47,0.267,0.881,0.491,1.23c0.224,0.357,0.511,0.645,0.861,0.86s0.755,0.334,1.213,0.357
				c0.341,0.017,0.654-0.021,0.94-0.112s0.49-0.192,0.612-0.303c0.041-0.201,0.067-0.404,0.079-0.61s0.021-0.381,0.028-0.525
				l0.022-0.455c0.008-0.163-0.008-0.309-0.046-0.438c-0.038-0.129-0.125-0.226-0.262-0.291c-0.124-0.064-0.295-0.116-0.512-0.156
				c-0.218-0.04-0.388-0.066-0.511-0.08l0.021-0.406l3.62,0.176L59.177,11.312z"/>
			<path i:knockout="Off" fill="#FFFFFF" d="M66.742,16.67l-2.151-0.555c-0.283-0.865-0.547-1.618-0.79-2.258
				c-0.244-0.64-0.517-1.306-0.816-1.996l-0.837-0.215l-0.65,2.523c-0.033,0.131-0.042,0.251-0.026,0.361s0.083,0.208,0.205,0.295
				c0.06,0.043,0.171,0.098,0.334,0.164c0.162,0.065,0.301,0.115,0.416,0.149l-0.102,0.394l-3.359-0.866l0.102-0.394
				c0.092,0.015,0.224,0.036,0.398,0.061c0.174,0.025,0.298,0.031,0.372,0.018c0.124-0.02,0.224-0.07,0.298-0.151
				c0.074-0.082,0.131-0.195,0.168-0.342l1.492-5.787c0.033-0.131,0.045-0.253,0.034-0.364c-0.012-0.111-0.079-0.21-0.202-0.299
				c-0.085-0.057-0.197-0.12-0.339-0.186s-0.263-0.117-0.365-0.151l0.102-0.394l3.684,0.95c0.338,0.087,0.646,0.204,0.924,0.349
				c0.278,0.146,0.518,0.327,0.718,0.543c0.193,0.21,0.328,0.455,0.404,0.733s0.07,0.588-0.018,0.931
				c-0.08,0.309-0.197,0.569-0.352,0.782c-0.155,0.213-0.347,0.382-0.575,0.508c-0.211,0.118-0.45,0.206-0.717,0.264
				c-0.268,0.058-0.554,0.091-0.86,0.1c0.26,0.623,0.475,1.146,0.644,1.569s0.378,0.939,0.627,1.546
				c0.106,0.268,0.214,0.472,0.319,0.614s0.216,0.263,0.33,0.365c0.085,0.074,0.197,0.143,0.337,0.207
				c0.14,0.064,0.258,0.111,0.354,0.14L66.742,16.67z M65.31,9.958c0.125-0.482,0.084-0.901-0.122-1.256
				c-0.205-0.354-0.562-0.597-1.07-0.728l-0.959-0.247l-0.882,3.419l0.739,0.19c0.52,0.134,0.995,0.08,1.427-0.162
				S65.163,10.527,65.31,9.958z"/>
			<path i:knockout="Off" fill="#FFFFFF" d="M73.607,20.132l-3.088-1.503l0.178-0.365c0.28,0.115,0.523,0.189,0.729,0.225
				c0.204,0.035,0.326,0.014,0.363-0.063c0.016-0.031,0.03-0.071,0.046-0.121c0.015-0.049,0.024-0.094,0.027-0.136l0.196-1.971
				l-2.588-1.26c-0.218,0.197-0.401,0.372-0.552,0.524s-0.287,0.293-0.411,0.423c-0.119,0.128-0.21,0.235-0.273,0.321
				s-0.11,0.159-0.139,0.218c-0.068,0.14-0.012,0.302,0.171,0.486c0.182,0.184,0.407,0.35,0.676,0.499l-0.178,0.365l-2.8-1.363
				l0.178-0.365c0.095,0.037,0.218,0.072,0.369,0.105c0.152,0.033,0.285,0.043,0.399,0.03c0.186-0.026,0.341-0.072,0.468-0.137
				c0.127-0.065,0.271-0.171,0.433-0.317c0.825-0.749,1.746-1.594,2.761-2.536c1.015-0.941,1.918-1.779,2.712-2.514l0.418,0.204
				l-0.644,7.602c-0.014,0.162-0.008,0.3,0.018,0.416c0.025,0.116,0.078,0.243,0.157,0.38c0.057,0.088,0.141,0.18,0.254,0.275
				c0.113,0.096,0.212,0.167,0.298,0.213L73.607,20.132z M72.094,15.641l0.276-3.402l-2.492,2.323L72.094,15.641z"/>
			<path i:knockout="Off" fill="#FFFFFF" d="M81.273,26.361l-2.819-2.328l0.259-0.313c0.104,0.081,0.242,0.178,0.417,0.292
				c0.174,0.114,0.305,0.179,0.392,0.195c0.14,0.02,0.261,0.011,0.364-0.027c0.104-0.037,0.201-0.111,0.293-0.222l3.823-4.632
				l-0.067-0.056l-6.643,3.623l-0.225-0.185l2.494-7.235l-0.059-0.048l-3.138,3.801c-0.304,0.368-0.512,0.667-0.623,0.897
				s-0.154,0.426-0.127,0.589c0.014,0.117,0.101,0.29,0.261,0.517s0.27,0.369,0.33,0.423l-0.259,0.313l-2.566-2.119l0.259-0.313
				c0.144,0.099,0.303,0.193,0.478,0.281c0.175,0.089,0.329,0.133,0.464,0.134c0.174,0.002,0.352-0.068,0.533-0.209
				c0.183-0.141,0.441-0.416,0.777-0.823l2.692-3.261c0.155-0.188,0.26-0.361,0.314-0.518c0.054-0.157,0.069-0.307,0.048-0.451
				c-0.026-0.157-0.091-0.311-0.192-0.461c-0.103-0.15-0.218-0.282-0.344-0.397l0.259-0.313l2.168,1.79l-2.132,6.283l4.87-2.71
				c0.178-0.099,0.353-0.212,0.525-0.339c0.173-0.126,0.283-0.215,0.33-0.267l2.083,1.719l-0.259,0.313
				c-0.086-0.066-0.205-0.141-0.354-0.225c-0.15-0.083-0.265-0.14-0.342-0.168c-0.131-0.048-0.25-0.045-0.354,0.009
				c-0.105,0.055-0.199,0.131-0.28,0.229l-3.793,4.595c-0.086,0.105-0.142,0.208-0.165,0.31c-0.022,0.102-0.006,0.221,0.053,0.36
				c0.029,0.075,0.103,0.182,0.22,0.321s0.216,0.244,0.294,0.314L81.273,26.361z"/>
			<path i:knockout="Off" fill="#FFFFFF" d="M87.155,34.612l-2.117-2.98l0.331-0.235c0.079,0.105,0.188,0.235,0.327,0.39
				c0.139,0.155,0.248,0.252,0.327,0.291c0.13,0.055,0.249,0.078,0.359,0.068s0.224-0.056,0.341-0.139l4.896-3.479l-0.051-0.071
				l-7.355,1.771l-0.168-0.237l4.289-6.338l-0.044-0.062l-4.019,2.854c-0.389,0.276-0.667,0.511-0.835,0.704
				c-0.167,0.193-0.26,0.371-0.275,0.536c-0.018,0.117,0.021,0.306,0.117,0.567c0.095,0.261,0.165,0.426,0.209,0.495l-0.331,0.235
				l-1.928-2.713l0.331-0.235c0.113,0.133,0.242,0.265,0.388,0.396s0.283,0.214,0.414,0.25c0.166,0.047,0.356,0.026,0.568-0.063
				c0.213-0.089,0.535-0.287,0.966-0.593l3.446-2.449c0.199-0.142,0.346-0.282,0.438-0.419s0.147-0.278,0.164-0.423
				c0.016-0.159-0.007-0.324-0.066-0.495s-0.136-0.329-0.229-0.473l0.331-0.235l1.629,2.292l-3.692,5.512l5.407-1.35
				c0.197-0.05,0.396-0.114,0.596-0.191c0.199-0.078,0.329-0.135,0.389-0.172l1.563,2.201l-0.331,0.235
				c-0.066-0.086-0.161-0.189-0.284-0.31c-0.123-0.12-0.219-0.203-0.286-0.251c-0.114-0.081-0.229-0.108-0.345-0.083
				c-0.116,0.025-0.226,0.075-0.33,0.149l-4.857,3.451c-0.11,0.079-0.19,0.164-0.239,0.256s-0.063,0.212-0.043,0.361
				c0.008,0.08,0.052,0.202,0.128,0.368c0.077,0.165,0.145,0.292,0.203,0.38L87.155,34.612z"/>
			<path i:knockout="Off" fill="#FFFFFF" d="M92.048,40.383l-2.309,0.797l-2.651-6.325l0.374-0.157
				c0.053,0.104,0.128,0.24,0.226,0.409s0.171,0.274,0.219,0.317c0.101,0.092,0.204,0.142,0.309,0.15
				c0.104,0.008,0.224-0.015,0.355-0.071l5.479-2.297c0.118-0.049,0.214-0.113,0.289-0.191c0.075-0.077,0.114-0.19,0.12-0.339
				c0.006-0.116-0.008-0.263-0.039-0.44c-0.033-0.177-0.065-0.315-0.099-0.415l0.375-0.157l2.471,5.894l-1.83,0.768l-0.169-0.403
				c0.236-0.184,0.454-0.458,0.654-0.822c0.199-0.364,0.269-0.66,0.206-0.887c-0.032-0.117-0.077-0.254-0.135-0.411
				c-0.058-0.157-0.128-0.334-0.211-0.532l-0.503-1.2l-2.997,1.256l0.361,0.862c0.116,0.277,0.227,0.468,0.332,0.574
				c0.104,0.105,0.238,0.182,0.4,0.228c0.136,0.036,0.303,0.045,0.498,0.029c0.196-0.017,0.375-0.048,0.535-0.095l0.17,0.404
				l-2.983,1.25l-0.169-0.403c0.165-0.086,0.33-0.201,0.495-0.344s0.275-0.267,0.333-0.371c0.093-0.17,0.131-0.335,0.114-0.495
				c-0.018-0.16-0.074-0.356-0.172-0.59l-0.361-0.862l-2.273,0.953c-0.228,0.095-0.401,0.187-0.519,0.274
				c-0.119,0.087-0.192,0.191-0.221,0.313c-0.028,0.121-0.019,0.266,0.029,0.436c0.048,0.169,0.134,0.401,0.258,0.698
				c0.05,0.118,0.114,0.273,0.195,0.466s0.156,0.353,0.226,0.479c0.071,0.129,0.156,0.259,0.255,0.388
				c0.098,0.129,0.191,0.21,0.281,0.244c0.241,0.092,0.573,0.156,0.997,0.19s0.729,0.042,0.914,0.023L92.048,40.383z"/>
			<path i:knockout="Off" fill="#FFFFFF" d="M91.508,49.491l-0.447-2.177c0.652-0.635,1.213-1.203,1.681-1.703
				s0.945-1.037,1.434-1.61l-0.174-0.846l-2.553,0.525c-0.132,0.027-0.244,0.072-0.336,0.134c-0.092,0.062-0.15,0.167-0.175,0.314
				c-0.013,0.073-0.013,0.197,0,0.372c0.012,0.175,0.028,0.321,0.049,0.439l-0.397,0.082l-0.699-3.397l0.397-0.082
				c0.026,0.089,0.066,0.217,0.121,0.384c0.054,0.167,0.103,0.281,0.147,0.343c0.072,0.103,0.161,0.169,0.268,0.201
				c0.105,0.031,0.232,0.032,0.381,0.001l5.853-1.204c0.133-0.027,0.247-0.07,0.343-0.129c0.095-0.059,0.154-0.163,0.179-0.313
				c0.015-0.101,0.021-0.229,0.019-0.386c-0.002-0.156-0.011-0.288-0.024-0.395l0.398-0.082l0.767,3.726
				c0.069,0.341,0.101,0.669,0.092,0.983c-0.009,0.314-0.066,0.608-0.172,0.883c-0.104,0.267-0.265,0.495-0.481,0.686
				c-0.216,0.19-0.497,0.322-0.844,0.393c-0.312,0.064-0.598,0.073-0.857,0.028c-0.259-0.046-0.495-0.144-0.708-0.294
				c-0.199-0.137-0.383-0.313-0.552-0.527c-0.17-0.215-0.325-0.458-0.469-0.729c-0.445,0.507-0.82,0.93-1.126,1.268
				c-0.306,0.338-0.677,0.752-1.113,1.242c-0.193,0.214-0.33,0.4-0.411,0.557s-0.142,0.31-0.183,0.457
				c-0.029,0.109-0.042,0.24-0.038,0.394c0.004,0.153,0.015,0.28,0.031,0.38L91.508,49.491z M96.907,45.253
				c0.488-0.1,0.846-0.321,1.074-0.661c0.228-0.341,0.289-0.768,0.184-1.282l-0.2-0.971l-3.459,0.712L94.66,43.8
				c0.107,0.525,0.365,0.928,0.772,1.209S96.331,45.372,96.907,45.253z"/>
		</g>
		<g i:knockout="Off">
			<path i:knockout="Off" d="M15.56,41.076l-0.411,2.184c-0.845,0.34-1.578,0.653-2.201,0.938s-1.269,0.601-1.938,0.946l-0.16,0.849
				l2.561,0.481c0.133,0.025,0.253,0.026,0.362,0.003s0.202-0.098,0.281-0.224c0.04-0.063,0.086-0.178,0.141-0.344
				c0.055-0.167,0.095-0.309,0.121-0.425l0.399,0.075l-0.641,3.409l-0.399-0.075c0.009-0.092,0.021-0.226,0.034-0.401
				s0.011-0.3-0.007-0.373c-0.028-0.123-0.085-0.218-0.171-0.287s-0.204-0.117-0.352-0.146l-5.873-1.104
				c-0.133-0.025-0.255-0.028-0.366-0.01c-0.11,0.019-0.205,0.092-0.285,0.222C6.605,46.883,6.551,47,6.494,47.145
				s-0.1,0.27-0.127,0.375l-0.399-0.075l0.703-3.739c0.064-0.342,0.161-0.657,0.288-0.945c0.127-0.287,0.292-0.538,0.494-0.752
				c0.197-0.207,0.432-0.358,0.705-0.452s0.583-0.109,0.93-0.044c0.313,0.059,0.581,0.159,0.804,0.299s0.404,0.321,0.544,0.541
				c0.132,0.202,0.235,0.435,0.311,0.697c0.076,0.263,0.127,0.547,0.157,0.852c0.604-0.301,1.112-0.55,1.523-0.747
				c0.411-0.197,0.912-0.439,1.501-0.728c0.26-0.125,0.457-0.245,0.591-0.36c0.134-0.115,0.249-0.232,0.342-0.353
				c0.068-0.09,0.129-0.207,0.184-0.35c0.055-0.144,0.093-0.265,0.116-0.363L15.56,41.076z M8.958,42.951
				c-0.49-0.092-0.905-0.024-1.245,0.205c-0.34,0.229-0.559,0.601-0.656,1.117l-0.183,0.974l3.471,0.653l0.141-0.75
				c0.099-0.527,0.014-0.998-0.257-1.413C9.958,43.321,9.535,43.059,8.958,42.951z"/>
			<path i:knockout="Off" d="M11.349,30.95c-0.038,0.103-0.077,0.259-0.117,0.47c-0.04,0.211-0.046,0.394-0.017,0.548
				c0.032,0.157,0.168,0.312,0.408,0.464s0.546,0.306,0.919,0.458l3.324,1.362c0.424,0.174,0.756,0.413,0.997,0.716
				c0.241,0.303,0.403,0.639,0.487,1.008c0.079,0.362,0.096,0.717,0.052,1.064s-0.125,0.664-0.242,0.95
				c-0.188,0.458-0.415,0.841-0.682,1.149c-0.267,0.308-0.553,0.542-0.857,0.701c-0.303,0.156-0.611,0.24-0.925,0.254
				c-0.314,0.013-0.615-0.039-0.902-0.157l-4.52-1.853c-0.125-0.052-0.239-0.074-0.341-0.066c-0.102,0.007-0.214,0.059-0.338,0.157
				c-0.087,0.07-0.175,0.17-0.264,0.299s-0.155,0.237-0.199,0.325l-0.376-0.154l1.297-3.167l0.376,0.154
				c-0.037,0.101-0.072,0.233-0.105,0.396c-0.033,0.163-0.052,0.285-0.056,0.366c-0.006,0.139,0.032,0.249,0.116,0.331
				s0.185,0.147,0.303,0.196l4.222,1.73c0.205,0.084,0.428,0.15,0.671,0.197c0.243,0.047,0.488,0.043,0.736-0.01
				c0.255-0.059,0.495-0.184,0.719-0.373c0.224-0.189,0.423-0.495,0.595-0.916c0.162-0.396,0.235-0.753,0.219-1.072
				c-0.016-0.319-0.094-0.599-0.235-0.837c-0.134-0.227-0.293-0.414-0.48-0.562c-0.187-0.147-0.388-0.266-0.603-0.354l-3.134-1.285
				c-0.399-0.163-0.736-0.268-1.013-0.314c-0.276-0.047-0.477-0.031-0.601,0.047c-0.141,0.088-0.281,0.23-0.42,0.426
				s-0.235,0.349-0.289,0.46l-0.376-0.154l1.274-3.108L11.349,30.95z"/>
			<path i:knockout="Off" d="M18.468,27.369c0.267-0.112,0.555-0.163,0.862-0.152c0.308,0.011,0.619,0.119,0.934,0.324
				c0.321,0.209,0.555,0.461,0.701,0.755c0.146,0.294,0.222,0.603,0.229,0.927c0.007,0.315-0.039,0.635-0.14,0.96
				s-0.247,0.634-0.438,0.926l-2.134,3.272l-0.34-0.222c0.044-0.082,0.105-0.205,0.181-0.369c0.077-0.164,0.122-0.287,0.135-0.372
				c0.02-0.13,0.006-0.242-0.043-0.334s-0.133-0.178-0.253-0.256l-4.976-3.245c-0.111-0.072-0.221-0.117-0.33-0.134
				c-0.109-0.017-0.226,0.013-0.351,0.09c-0.113,0.067-0.222,0.153-0.327,0.257s-0.188,0.195-0.248,0.273l-0.34-0.222l2.083-3.195
				c0.161-0.247,0.34-0.467,0.536-0.662c0.196-0.194,0.423-0.354,0.68-0.478c0.239-0.118,0.496-0.175,0.771-0.171
				c0.275,0.003,0.553,0.096,0.833,0.278c0.244,0.159,0.432,0.344,0.564,0.556c0.133,0.211,0.216,0.441,0.249,0.689
				c0.033,0.234,0.031,0.477-0.006,0.728c-0.036,0.251-0.104,0.505-0.201,0.76l0.043,0.028c0.152-0.183,0.346-0.372,0.582-0.567
				C17.958,27.621,18.207,27.472,18.468,27.369z M16.661,27.869c-0.062-0.211-0.16-0.394-0.295-0.549
				c-0.135-0.155-0.316-0.307-0.544-0.455c-0.38-0.248-0.746-0.338-1.098-0.272c-0.351,0.066-0.673,0.323-0.964,0.771
				c-0.068,0.104-0.15,0.236-0.248,0.396c-0.098,0.161-0.18,0.295-0.246,0.404l2.657,1.733l0.403-0.618
				c0.173-0.266,0.288-0.516,0.343-0.75C16.724,28.295,16.722,28.075,16.661,27.869z M19.291,28.624
				c-0.406-0.265-0.83-0.346-1.271-0.242c-0.44,0.104-0.827,0.41-1.159,0.919c-0.135,0.208-0.247,0.385-0.335,0.531
				s-0.154,0.256-0.197,0.329l2.421,1.579c0.203,0.133,0.411,0.15,0.622,0.052c0.211-0.098,0.414-0.295,0.606-0.59
				c0.315-0.483,0.417-0.945,0.303-1.385C20.167,29.377,19.837,28.979,19.291,28.624z"/>
			<path i:knockout="Off" d="M21.405,18.062c-0.042,0.051-0.094,0.145-0.157,0.283c-0.062,0.138-0.097,0.246-0.105,0.322
				c-0.035,0.174-0.052,0.298-0.053,0.372c0,0.074,0.025,0.241,0.076,0.5c0.106,0.512,0.232,1.011,0.379,1.498
				c0.146,0.486,0.336,1.1,0.568,1.841c0.084,0.274,0.166,0.48,0.245,0.617s0.224,0.304,0.434,0.5l1.154,1.077
				c0.102,0.095,0.21,0.158,0.323,0.187c0.114,0.029,0.239,0.016,0.377-0.041c0.078-0.038,0.205-0.119,0.38-0.241
				c0.175-0.123,0.308-0.229,0.398-0.32l0.297,0.277l-2.634,2.821l-0.297-0.277c0.069-0.085,0.169-0.214,0.302-0.388
				c0.133-0.174,0.216-0.304,0.249-0.39c0.053-0.142,0.061-0.267,0.022-0.374s-0.111-0.211-0.219-0.312l-1.469-1.371
				c-0.045-0.042-0.154-0.092-0.327-0.149s-0.368-0.116-0.587-0.178c-0.488-0.137-1.021-0.281-1.597-0.432
				c-0.576-0.15-1.072-0.276-1.488-0.377c-0.249-0.057-0.449-0.088-0.599-0.093s-0.3,0.011-0.45,0.046
				c-0.106,0.029-0.215,0.08-0.326,0.154c-0.111,0.073-0.206,0.146-0.283,0.217l-0.297-0.277l2.404-2.576l0.297,0.277
				c-0.264,0.294-0.435,0.517-0.511,0.668c-0.077,0.151-0.084,0.256-0.021,0.314c0.017,0.016,0.055,0.035,0.114,0.058
				c0.059,0.023,0.135,0.049,0.229,0.079c0.108,0.032,0.233,0.067,0.375,0.105c0.143,0.038,0.278,0.075,0.408,0.112
				c0.375,0.103,0.752,0.203,1.132,0.298c0.379,0.096,0.874,0.221,1.483,0.374c-0.302-1.116-0.544-1.979-0.728-2.588
				s-0.314-0.951-0.393-1.024c-0.064-0.06-0.139-0.084-0.223-0.073c-0.084,0.011-0.175,0.046-0.271,0.104
				c-0.099,0.062-0.197,0.137-0.294,0.227c-0.097,0.09-0.188,0.172-0.273,0.246l-0.297-0.277l1.954-2.093L21.405,18.062z"/>
			<path i:knockout="Off" d="M31.766,12.86c0.227,0.365,0.356,0.733,0.387,1.104c0.031,0.371-0.023,0.728-0.163,1.069
				c-0.136,0.34-0.328,0.647-0.576,0.919c-0.248,0.273-0.54,0.514-0.876,0.723l-0.788,0.49l1.324,2.129
				c0.072,0.115,0.154,0.205,0.247,0.269c0.092,0.063,0.212,0.082,0.36,0.054c0.074-0.014,0.192-0.057,0.355-0.131
				c0.163-0.074,0.308-0.148,0.436-0.223l0.214,0.345l-2.999,1.865l-0.214-0.345c0.074-0.055,0.18-0.137,0.318-0.246
				c0.138-0.108,0.228-0.194,0.27-0.257c0.071-0.104,0.103-0.21,0.096-0.32s-0.051-0.229-0.13-0.358l-3.15-5.064
				c-0.072-0.115-0.153-0.209-0.243-0.281c-0.09-0.072-0.21-0.093-0.36-0.064c-0.151,0.035-0.294,0.082-0.428,0.14
				c-0.134,0.059-0.248,0.112-0.34,0.16l-0.214-0.345l3.202-1.991c0.652-0.405,1.279-0.578,1.881-0.517
				C30.978,12.045,31.441,12.337,31.766,12.86z M31.006,14.981c0.015-0.227-0.012-0.436-0.08-0.628
				c-0.068-0.191-0.144-0.354-0.228-0.488c-0.116-0.187-0.256-0.362-0.421-0.528s-0.347-0.286-0.545-0.362
				c-0.212-0.082-0.438-0.106-0.68-0.074c-0.242,0.033-0.504,0.136-0.786,0.312l-0.701,0.436l1.915,3.078l0.507-0.315
				c0.358-0.222,0.615-0.458,0.771-0.707C30.912,15.456,30.995,15.215,31.006,14.981z"/>
			<path i:knockout="Off" d="M42.377,15.181l-2.062,0.827c-0.741-0.53-1.399-0.98-1.974-1.352c-0.575-0.372-1.188-0.747-1.839-1.126
				L35.7,13.852l0.97,2.418c0.05,0.125,0.114,0.228,0.192,0.307s0.191,0.118,0.34,0.116c0.075,0,0.197-0.022,0.366-0.065
				c0.17-0.043,0.312-0.085,0.424-0.126l0.151,0.377l-3.22,1.291l-0.151-0.377c0.083-0.042,0.201-0.104,0.356-0.187
				c0.155-0.083,0.258-0.151,0.311-0.206c0.088-0.089,0.138-0.189,0.15-0.298c0.012-0.11-0.01-0.235-0.066-0.375l-2.224-5.547
				c-0.051-0.126-0.113-0.23-0.188-0.313s-0.188-0.124-0.34-0.121c-0.102,0.003-0.23,0.02-0.383,0.05
				c-0.153,0.03-0.281,0.062-0.384,0.094l-0.151-0.377l3.531-1.416c0.323-0.129,0.641-0.218,0.951-0.265
				c0.311-0.047,0.611-0.042,0.9,0.013c0.281,0.055,0.534,0.172,0.76,0.351s0.405,0.433,0.537,0.761
				c0.119,0.296,0.179,0.576,0.18,0.838c0.001,0.263-0.054,0.513-0.163,0.75c-0.1,0.22-0.241,0.432-0.422,0.636
				c-0.181,0.205-0.393,0.401-0.634,0.59c0.578,0.348,1.061,0.643,1.448,0.883c0.387,0.241,0.86,0.533,1.42,0.875
				c0.245,0.152,0.452,0.254,0.621,0.305c0.169,0.052,0.33,0.084,0.482,0.099c0.112,0.009,0.244-0.001,0.394-0.033
				c0.151-0.031,0.273-0.063,0.369-0.098L42.377,15.181z M37.249,10.62c-0.186-0.463-0.466-0.776-0.842-0.94
				c-0.375-0.164-0.807-0.148-1.293,0.047l-0.92,0.369l1.314,3.277l0.709-0.284c0.498-0.199,0.849-0.524,1.053-0.975
				C37.475,11.664,37.468,11.166,37.249,10.62z"/>
			<path i:knockout="Off" d="M47.342,7.012c0.424,0.312,0.785,0.714,1.08,1.208c0.295,0.494,0.5,1.062,0.613,1.704
				c0.114,0.646,0.115,1.25,0.002,1.814s-0.32,1.063-0.62,1.499c-0.29,0.43-0.652,0.785-1.085,1.066
				c-0.434,0.281-0.917,0.469-1.446,0.562c-0.564,0.1-1.104,0.085-1.621-0.042c-0.516-0.127-0.979-0.35-1.389-0.668
				c-0.409-0.31-0.758-0.712-1.047-1.207c-0.29-0.495-0.488-1.044-0.595-1.648c-0.117-0.661-0.118-1.269-0.003-1.823
				c0.115-0.554,0.32-1.052,0.615-1.495c0.292-0.438,0.658-0.798,1.098-1.081c0.439-0.282,0.918-0.469,1.437-0.561
				c0.538-0.095,1.062-0.083,1.575,0.036C46.468,6.495,46.931,6.707,47.342,7.012z M47.508,12.932
				c0.152-0.386,0.238-0.807,0.257-1.264c0.02-0.457-0.018-0.957-0.114-1.5c-0.099-0.559-0.243-1.062-0.434-1.509
				s-0.42-0.817-0.688-1.109c-0.267-0.288-0.575-0.495-0.923-0.621s-0.727-0.153-1.134-0.081c-0.458,0.081-0.828,0.255-1.111,0.521
				c-0.283,0.267-0.495,0.594-0.635,0.981c-0.131,0.37-0.204,0.789-0.217,1.257s0.023,0.95,0.111,1.447
				c0.098,0.551,0.235,1.04,0.412,1.465c0.177,0.426,0.403,0.792,0.677,1.099c0.265,0.3,0.571,0.517,0.917,0.651
				c0.346,0.134,0.736,0.163,1.171,0.086c0.408-0.072,0.759-0.232,1.053-0.481C47.143,13.627,47.363,13.312,47.508,12.932z"/>
			<path i:knockout="Off" d="M58.363,10.957c-0.096,0.008-0.223,0.022-0.384,0.042c-0.16,0.02-0.29,0.051-0.391,0.094
				c-0.12,0.054-0.207,0.134-0.26,0.239c-0.053,0.105-0.082,0.229-0.087,0.373l-0.022,0.642c-0.017,0.466-0.025,0.781-0.025,0.945
				c0,0.163,0.002,0.297,0.007,0.403c-0.523,0.215-1.042,0.375-1.558,0.482c-0.516,0.106-1.019,0.151-1.51,0.133
				c-0.526-0.019-1.03-0.136-1.51-0.351c-0.48-0.215-0.896-0.512-1.247-0.89c-0.354-0.382-0.631-0.84-0.829-1.376
				c-0.198-0.536-0.286-1.129-0.263-1.782c0.022-0.629,0.146-1.208,0.373-1.739c0.226-0.53,0.535-0.986,0.928-1.369
				c0.381-0.375,0.83-0.662,1.346-0.859c0.516-0.198,1.064-0.286,1.644-0.266c0.465,0.016,0.866,0.088,1.206,0.215
				c0.34,0.127,0.639,0.274,0.896,0.442L56.93,5.95l0.468,0.016l-0.055,2.891L56.858,8.84c-0.069-0.323-0.159-0.643-0.268-0.958
				c-0.108-0.315-0.254-0.599-0.435-0.852c-0.181-0.252-0.403-0.457-0.671-0.613s-0.59-0.241-0.969-0.255
				c-0.413-0.015-0.785,0.057-1.115,0.215c-0.331,0.158-0.622,0.399-0.873,0.726c-0.247,0.314-0.443,0.71-0.588,1.188
				c-0.144,0.478-0.227,1.014-0.248,1.609c-0.019,0.525,0.027,1.022,0.137,1.491c0.109,0.469,0.278,0.877,0.507,1.224
				c0.228,0.354,0.519,0.637,0.872,0.848c0.354,0.211,0.76,0.325,1.218,0.341c0.341,0.012,0.654-0.029,0.938-0.125
				c0.285-0.095,0.488-0.199,0.608-0.312c0.038-0.201,0.062-0.405,0.071-0.611s0.017-0.381,0.021-0.525l0.016-0.455
				c0.006-0.164-0.011-0.31-0.051-0.438s-0.129-0.224-0.266-0.287c-0.126-0.062-0.297-0.112-0.515-0.149
				c-0.217-0.037-0.388-0.062-0.511-0.074l0.015-0.406l3.622,0.128L58.363,10.957z"/>
			<path i:knockout="Off" d="M66.018,16.208l-2.16-0.524c-0.295-0.861-0.569-1.61-0.821-2.247c-0.253-0.637-0.534-1.298-0.844-1.984
				l-0.84-0.204l-0.615,2.532c-0.031,0.131-0.039,0.251-0.021,0.361c0.017,0.109,0.087,0.207,0.209,0.292
				c0.061,0.042,0.173,0.096,0.337,0.159c0.163,0.063,0.303,0.111,0.418,0.143l-0.096,0.395l-3.371-0.818l0.096-0.395
				c0.092,0.014,0.224,0.033,0.398,0.055c0.174,0.022,0.299,0.027,0.373,0.013c0.124-0.021,0.223-0.074,0.295-0.156
				c0.073-0.082,0.128-0.197,0.164-0.344l1.41-5.807c0.032-0.132,0.042-0.253,0.029-0.365c-0.013-0.111-0.082-0.209-0.207-0.296
				c-0.085-0.056-0.198-0.117-0.341-0.182c-0.143-0.064-0.265-0.113-0.367-0.146l0.096-0.395l3.697,0.897
				c0.338,0.082,0.647,0.194,0.928,0.336c0.28,0.142,0.522,0.32,0.726,0.533c0.196,0.208,0.335,0.45,0.415,0.728
				c0.08,0.277,0.078,0.587-0.005,0.931c-0.075,0.31-0.188,0.572-0.341,0.787c-0.151,0.215-0.341,0.386-0.568,0.515
				c-0.209,0.121-0.446,0.212-0.713,0.274c-0.266,0.062-0.552,0.099-0.858,0.112c0.269,0.619,0.49,1.139,0.666,1.56
				c0.175,0.421,0.391,0.934,0.647,1.538c0.111,0.266,0.221,0.469,0.328,0.609c0.108,0.14,0.22,0.26,0.335,0.36
				c0.087,0.073,0.199,0.14,0.341,0.202c0.141,0.062,0.259,0.107,0.356,0.135L66.018,16.208z M64.49,9.517
				c0.118-0.485,0.071-0.903-0.14-1.254c-0.21-0.351-0.57-0.589-1.08-0.713l-0.963-0.233l-0.833,3.431l0.742,0.18
				c0.521,0.126,0.995,0.066,1.424-0.182C64.068,10.497,64.352,10.087,64.49,9.517z"/>
			<path i:knockout="Off" d="M73.125,19.722l-3.094-1.49l0.176-0.366c0.281,0.114,0.524,0.188,0.729,0.222s0.326,0.012,0.363-0.065
				c0.016-0.032,0.03-0.072,0.045-0.121c0.016-0.049,0.024-0.094,0.027-0.136l0.188-1.972l-2.594-1.249
				c-0.217,0.198-0.399,0.374-0.549,0.527c-0.15,0.153-0.286,0.294-0.41,0.425c-0.118,0.129-0.209,0.237-0.271,0.323
				c-0.063,0.086-0.109,0.16-0.138,0.219c-0.068,0.14-0.011,0.302,0.173,0.485c0.183,0.183,0.408,0.348,0.678,0.495l-0.176,0.366
				l-2.806-1.351l0.176-0.366c0.095,0.037,0.218,0.071,0.369,0.104c0.152,0.033,0.286,0.042,0.4,0.028
				c0.185-0.027,0.341-0.074,0.467-0.139c0.126-0.066,0.27-0.172,0.431-0.319c0.822-0.752,1.739-1.602,2.75-2.548
				c1.01-0.946,1.91-1.788,2.7-2.526l0.419,0.202l-0.609,7.604c-0.013,0.162-0.007,0.3,0.02,0.416s0.079,0.242,0.159,0.379
				c0.057,0.088,0.142,0.179,0.255,0.274c0.113,0.096,0.213,0.166,0.299,0.211L73.125,19.722z M71.592,15.238l0.261-3.403
				l-2.481,2.334L71.592,15.238z"/>
			<path i:knockout="Off" d="M80.816,25.914l-2.832-2.313l0.258-0.314c0.104,0.08,0.243,0.177,0.418,0.289
				c0.175,0.113,0.306,0.177,0.393,0.193c0.14,0.019,0.261,0.009,0.364-0.029s0.201-0.113,0.292-0.224l3.8-4.651l-0.067-0.055
				l-6.624,3.656l-0.226-0.184l2.457-7.248l-0.059-0.048l-3.118,3.817c-0.302,0.37-0.509,0.669-0.619,0.9s-0.151,0.427-0.124,0.59
				c0.015,0.117,0.103,0.289,0.264,0.516s0.271,0.367,0.332,0.422l-0.257,0.314l-2.577-2.105l0.257-0.314
				c0.145,0.098,0.304,0.191,0.479,0.279c0.175,0.087,0.329,0.131,0.465,0.131c0.173,0.001,0.351-0.07,0.531-0.212
				c0.182-0.143,0.439-0.418,0.773-0.828l2.676-3.274c0.154-0.189,0.258-0.363,0.312-0.52c0.053-0.157,0.068-0.308,0.046-0.451
				c-0.026-0.157-0.092-0.311-0.195-0.46c-0.103-0.149-0.218-0.281-0.345-0.395l0.257-0.315l2.177,1.779l-2.101,6.293l4.856-2.734
				c0.178-0.1,0.353-0.214,0.524-0.342s0.282-0.217,0.329-0.269l2.091,1.708l-0.257,0.314c-0.087-0.066-0.206-0.14-0.356-0.223
				c-0.15-0.083-0.264-0.138-0.342-0.166c-0.132-0.048-0.25-0.044-0.354,0.01c-0.105,0.055-0.198,0.132-0.279,0.231l-3.77,4.614
				c-0.086,0.105-0.141,0.209-0.163,0.311c-0.022,0.102-0.005,0.222,0.054,0.36c0.029,0.074,0.104,0.181,0.222,0.32
				c0.118,0.139,0.217,0.243,0.296,0.313L80.816,25.914z"/>
			<path i:knockout="Off" d="M86.766,34.12l-2.141-2.964l0.329-0.238c0.08,0.104,0.19,0.233,0.33,0.387
				c0.14,0.154,0.25,0.25,0.33,0.288c0.13,0.054,0.249,0.076,0.359,0.066c0.109-0.01,0.223-0.058,0.34-0.142l4.868-3.516
				l-0.051-0.071l-7.342,1.828l-0.171-0.236l4.24-6.371l-0.044-0.062l-3.996,2.886c-0.387,0.279-0.663,0.516-0.829,0.71
				c-0.166,0.194-0.257,0.374-0.272,0.538c-0.016,0.117,0.024,0.305,0.122,0.566c0.097,0.26,0.168,0.425,0.213,0.493l-0.33,0.238
				l-1.948-2.698l0.329-0.238c0.114,0.132,0.245,0.263,0.392,0.393s0.285,0.212,0.415,0.247c0.167,0.046,0.357,0.023,0.569-0.068
				c0.212-0.091,0.531-0.292,0.96-0.601l3.428-2.476c0.198-0.143,0.344-0.284,0.436-0.422c0.092-0.138,0.145-0.28,0.16-0.424
				c0.015-0.159-0.009-0.324-0.069-0.495c-0.062-0.171-0.14-0.328-0.232-0.471l0.329-0.238l1.646,2.279l-3.65,5.541l5.396-1.392
				c0.197-0.052,0.396-0.117,0.595-0.196s0.328-0.137,0.387-0.175l1.581,2.189l-0.329,0.238c-0.066-0.086-0.163-0.188-0.287-0.307
				c-0.124-0.119-0.22-0.202-0.287-0.249c-0.115-0.08-0.23-0.107-0.346-0.081s-0.226,0.077-0.329,0.151l-4.83,3.488
				c-0.11,0.08-0.189,0.166-0.237,0.258c-0.049,0.092-0.062,0.213-0.041,0.361c0.01,0.08,0.054,0.202,0.132,0.367
				c0.078,0.165,0.146,0.291,0.205,0.378L86.766,34.12z"/>
			<path i:knockout="Off" d="M91.693,39.853l-2.303,0.813l-2.694-6.307l0.374-0.16c0.053,0.104,0.129,0.239,0.228,0.407
				c0.1,0.168,0.173,0.273,0.221,0.316c0.102,0.091,0.205,0.141,0.311,0.148c0.104,0.008,0.223-0.017,0.354-0.073l5.464-2.333
				c0.117-0.05,0.214-0.115,0.288-0.193c0.074-0.078,0.113-0.191,0.117-0.34c0.006-0.116-0.009-0.263-0.042-0.439
				c-0.033-0.177-0.066-0.315-0.101-0.415l0.373-0.159l2.511,5.877l-1.825,0.779l-0.172-0.402c0.235-0.185,0.451-0.46,0.648-0.826
				c0.197-0.366,0.265-0.662,0.201-0.888c-0.033-0.117-0.079-0.254-0.139-0.411c-0.059-0.157-0.13-0.333-0.214-0.53l-0.511-1.197
				l-2.989,1.276l0.368,0.86c0.117,0.276,0.229,0.467,0.335,0.572s0.24,0.181,0.402,0.226c0.136,0.035,0.303,0.043,0.498,0.025
				c0.196-0.018,0.374-0.051,0.535-0.098l0.172,0.402l-2.975,1.271l-0.172-0.402c0.165-0.087,0.329-0.203,0.492-0.347
				c0.164-0.144,0.274-0.269,0.331-0.373c0.092-0.17,0.128-0.336,0.11-0.496s-0.076-0.356-0.176-0.589l-0.367-0.86l-2.267,0.968
				c-0.227,0.097-0.399,0.189-0.517,0.277c-0.118,0.088-0.19,0.193-0.219,0.314c-0.027,0.121-0.017,0.267,0.032,0.435
				s0.137,0.4,0.263,0.696c0.05,0.118,0.116,0.272,0.198,0.465s0.158,0.352,0.229,0.478c0.072,0.129,0.157,0.258,0.257,0.386
				c0.099,0.128,0.193,0.209,0.283,0.242c0.241,0.091,0.573,0.152,0.998,0.184c0.425,0.031,0.729,0.037,0.914,0.017L91.693,39.853z"
				/>
			<path i:knockout="Off" d="M91.194,48.959l-0.457-2.174c0.649-0.638,1.208-1.208,1.674-1.71c0.465-0.502,0.941-1.042,1.427-1.617
				l-0.178-0.845l-2.551,0.536c-0.132,0.028-0.243,0.073-0.335,0.136c-0.092,0.063-0.149,0.167-0.174,0.315
				c-0.012,0.073-0.012,0.197,0.002,0.372c0.013,0.175,0.03,0.321,0.051,0.439l-0.397,0.083L89.542,41.1l0.397-0.084
				c0.026,0.088,0.067,0.216,0.122,0.383s0.104,0.281,0.149,0.342c0.072,0.102,0.162,0.168,0.268,0.199
				c0.106,0.031,0.233,0.031,0.381,0l5.848-1.23c0.133-0.028,0.247-0.072,0.342-0.131s0.154-0.164,0.178-0.314
				c0.015-0.101,0.021-0.229,0.018-0.386c-0.004-0.156-0.012-0.288-0.026-0.395l0.397-0.083l0.783,3.723
				c0.071,0.341,0.104,0.668,0.096,0.982c-0.007,0.314-0.063,0.609-0.168,0.885c-0.103,0.267-0.262,0.496-0.478,0.688
				c-0.216,0.191-0.496,0.324-0.843,0.396c-0.312,0.066-0.598,0.076-0.856,0.032c-0.26-0.044-0.496-0.142-0.71-0.291
				c-0.199-0.137-0.385-0.312-0.555-0.525s-0.327-0.456-0.471-0.727c-0.443,0.509-0.816,0.934-1.121,1.273
				c-0.304,0.339-0.674,0.755-1.107,1.247c-0.192,0.215-0.329,0.401-0.408,0.559c-0.081,0.158-0.141,0.311-0.182,0.458
				c-0.028,0.109-0.04,0.24-0.036,0.394c0.005,0.154,0.016,0.28,0.033,0.38L91.194,48.959z M96.575,44.698
				c0.487-0.103,0.845-0.325,1.071-0.667c0.227-0.341,0.286-0.769,0.178-1.282l-0.204-0.97l-3.455,0.727l0.157,0.748
				c0.11,0.524,0.369,0.927,0.777,1.206C95.508,44.74,96,44.819,96.575,44.698z"/>
		</g>
	</g>
</svg>
